<?xml version="1.0" encoding="utf-8"?>
<!-- Generator: Adobe Illustrator 17.0.0, SVG Export Plug-In . SVG Version: 6.00 Build 0)  -->
<!DOCTYPE svg PUBLIC "-//W3C//DTD SVG 1.1//EN" "http://www.w3.org/Graphics/SVG/1.1/DTD/svg11.dtd">
<svg version="1.1" id="Layer_1" xmlns="http://www.w3.org/2000/svg" xmlns:xlink="http://www.w3.org/1999/xlink" x="0px" y="0px"
	 width="612px" height="792px" viewBox="0 0 612 792" enable-background="new 0 0 612 792" xml:space="preserve">
<image overflow="visible" width="800" height="925" xlink:href="../Dropbox/atom/JAVASCRIPT/testForSplittingIntoSmallImg/italy.png"  transform="matrix(0.7403 0 0 0.7403 11.8753 25.6778)">
</image>
<path id="Aosta" display="none" fill="none" stroke="#000000" stroke-miterlimit="10" d="M42.688,113.938
	c-0.024-0.966,0.489-2.154,0.684-3.063c0.246-1.149,0.558-2.081,1.941-2.126c1.221-0.04,2.345-0.019,3.496-0.514
	c1.013-0.437,1.838-1.078,2.801-1.562c0.418-0.21,0.758-0.434,1.25-0.281c0.459,0.142,0.81,0.548,1.278,0.686
	c1.136,0.334,2.496,0.369,3.633,0.486c1.889,0.195,4.04,0.297,5.883-0.172c1.36-0.346,2.395-1.012,3.614-1.644
	c1.238-0.641,2.541-1.143,3.733-1.79c0.804-0.436,1.602-0.931,2.39-1.316c0.971-0.474,2.015-0.795,2.999-1.128
	c1.283-0.435,2.119-0.203,3.229,0.438c1.051,0.606,1.938,1.387,3.008,1.974c1.079,0.592,1.86,0.812,3.061,1.09
	c1.093,0.254,2.267,1.151,3.25,1.594c0.726,0.327,1.062,0.347,1.236,1.191c0.109,0.528,0.067,1.045,0.015,1.575
	c-0.108,1.109-0.315,2.188-0.314,3.314c0.001,1.074-0.1,2.391,0.736,3.142c0.887,0.796,2.077,1.158,2.34,2.418
	c0.123,0.587,0.263,1.259,0.174,1.878c-0.092,0.637-0.506,0.756-0.814,1.297c-0.482,0.848-0.099,2.303-0.235,3.281
	c-0.15,1.084-0.667,1.622-1.451,2.372c-1.654,1.58-3.911,1.847-6.061,2.175c-1.077,0.165-2.332,0.39-3.377-0.048
	c-1.527-0.64-3.195-1.037-4.797-1.377c-1.411-0.299-3.031-0.551-4.456-0.198c-1.05,0.26-1.859,1.036-2.809,1.576
	c-1.794,1.019-3.573,2.425-5.549,3.059c-1.042,0.334-2.139,0.441-3.261,0.486c-1.474,0.058-2.345-0.938-3.68-1.269
	c-0.595-0.147-2.663-0.664-3.022,0.134c-1.172-0.329-2.233-0.675-2.301-2.056c-0.061-1.228-0.059-2.458-0.063-3.684
	c-0.002-0.739,0.178-1.18-0.279-1.814c-0.329-0.455-0.801-0.851-1.158-1.262c-0.929-1.073-1.945-1.86-3.14-2.692
	c-1.085-0.756-2.481-1.347-3.219-2.496c-0.629-0.979-1.663-2.561-0.891-3.611"/>
<path id="Piemonte" display="none" fill="none" stroke="#000000" stroke-miterlimit="10" d="M70.5,128.313
	c-1.519,1.068-3.017,2.303-4.623,3.189c-1.766,0.974-4.359,1.064-6.378,0.875c-0.975-0.091-2.221-0.562-3.127-0.984
	c-0.416-0.194-0.851-0.627-1.309-0.642c-0.361-0.012-1.261,0.367-1.314,0.752c-0.108,0.781,1.305,2.427,1.812,2.999
	c0.68,0.766,1.512,1.404,1.986,2.326c0.217,0.422,0.718,1.074,0.816,1.5c0.12,0.524-0.329,1.267-0.626,1.67
	c-0.787,1.065-1.765,1.384-1.375,2.941c0.535,2.13-0.571,3.285-2.361,4.265c-1.877,1.028-3.633,2.627-5.611,3.373
	c-2.134,0.805-4.618,0.568-6.934,0.677c-1.171,0.055-2.225,0.031-3.331-0.177c-1.093-0.205-2.375-0.051-3.377,0.345
	c-1.813,0.717-2.1,3.518-1.636,5.155c0.297,1.046,1.26,1.898,1.844,2.797c0.535,0.824,0.624,2.163,0.67,3.127
	c0.055,1.152-0.005,2.316,0.063,3.456c0.035,0.58,0.034,1.105,0.358,1.608c0.657,1.019,1.304,1.157,2.43,1.369
	c1.142,0.215,2.283,0.441,3.439,0.572c1.784,0.201,3.31,0.536,4.748,1.579c2.131,1.546,3.694,3.916,3.94,6.666
	c0.151,1.698-0.156,3.05-0.917,4.583c-0.774,1.558-1.578,1.833-3.181,2.333c-1.377,0.43-1.981,1.414-2.898,2.44
	c-0.873,0.977-1.808,1.922-2.588,2.977c-0.77,1.042-2.188,2.327-1.935,3.666c0.232,1.228,0.711,2.516,0.898,3.769
	c0.212,1.426,1.123,2.63,1.519,4.069c0.367,1.333,0.433,2.779,1.019,4.081c1.18,2.626,3.324,4.684,5.632,6.396
	c1.354,1.004,2.723,1.193,4.179,1.75c1.418,0.543,2.742,1.272,3.925,2.25c1.286,1.063,2.043,1.688,3.662,2.019
	c1.179,0.24,2.641,1.039,3.916,0.838c0.768-0.122,1.367-0.852,2.084-1.15c0.658-0.274,1.284-0.444,1.917-0.75
	c0.588-0.284,1.056-0.638,1.604-1.002c0.676-0.448,1.162-0.488,1.98-0.519c1.273-0.049,3.265-0.202,3.504,1.333
	c0.225,1.443-0.747,2.596-0.252,4.083c0.55,1.653,2.311,0.084,2.931-0.831c0.387-0.572,0.697-1.457,1.483-1.421
	c0.38,0.017,1.252,0.548,1.585,0.75c2.052,1.24,5.835,4.06,8.104,1.854c0.92-0.894,0.748-2.718,1.746-3.435
	c0.713-0.512,1.898,0.046,2.731-0.167c0.737-0.188,0.785-0.745,1.02-1.498c0.417-1.336,0.805-2.861,0.729-4.354
	c-0.061-1.203-0.692-3.03-0.152-4.231c0.256-0.57,1.066-1.117,1.488-1.602c0.5-0.576,1.042-1.16,1.493-1.646
	c0.857-0.922,2.375-1.762,2.856-2.919c0.204-0.491,0.212-1.227,0.232-1.75l-0.104,0.271c0.229-1.5,1.05-5.239,3.299-4.453
	c1.286,0.45,1.772,1.557,2.778,2.314c1.092,0.822,2.676,0.431,3.864-0.05c0.47-0.19,0.835-0.607,1.309-0.811
	c0.536-0.231,1.12,0.01,1.705,0.063c1.043,0.094,2.289,0.054,3.049-0.674c0.726-0.696,1.201-1.539,1.7-2.387
	c0.524-0.889,1.055-2.263,2.172-2.376c2.487-0.254,4.174,1.939,4.86,4.126c0.209,0.668,0.395,2.526,1.201,2.498
	c0.458-0.016,1.141-0.567,1.52-0.8c0.42-0.258,0.744-0.617,1.042-1.012c0.764-1.012,1.221-1.657,2.439-2.11
	c0.617-0.229,1.312-0.367,1.501-1.075c0.231-0.865,0.015-2.048,0.058-2.946c0.049-1.017-0.133-2.484,1.44-2.307
	c1.187,0.133,1.78,1.544,2.441,2.376c0.642,0.808,1.944,1.294,2.93,1.499c0.591,0.123,1.209,0.033,1.81,0.077
	c1.057,0.077,1.261,0.471,1.773,1.281c0.269,0.425,0.438,0.954,0.905,1.14c0.654,0.261,0.959-0.051,1.389-0.422
	c0.897-0.773,0.969-1.861,1.488-2.906c0.41-0.825,1.035-1.899,1.95-2.247c0.292-0.111,0.578-0.024,0.878-0.111
	c0.479-0.14,0.328-0.061,0.373-0.499c0.056-0.533-0.212-1.072-0.511-1.486c-0.646-0.896-1.454-1.587-2.003-2.562
	c-0.442-0.784-0.859-1.601-1.312-2.387c-0.533-0.924-0.765-1.972-1.911-2.256c-1.226-0.304-2.873-0.197-2.7-1.933
	c0.055-0.551,0.254-1.025,0.314-1.561c0.09-0.804-0.028-0.931-0.688-1.394c-0.547-0.384-0.929-0.818-1.497-1.172
	c-0.652-0.406-1.336-0.582-1.566-1.371c-0.187-0.644-0.06-1.167-0.36-1.802c-0.27-0.571-0.608-1.19-1.139-1.561
	c-0.883-0.617-3.334-0.117-3.248-1.701c0.058-1.075,0.75-2.491,0.5-3.569c-0.326-1.403-2.417-0.083-3.003,0.438
	c-0.756,0.671-1.095,1.658-1.853,2.311c-0.325,0.28-1.01,0.883-1.456,0.884c-0.273,0.001-0.575-0.353-0.817-0.445
	c-0.347-0.131-0.681-0.145-1.058-0.125c-1.905,0.101-2.156-2.123-2.816-3.434l-0.063,0.167c-0.007-1.859-0.605-3.341-1.366-4.964
	c-0.827-1.764-2.564-2.844-3.125-4.536c-0.817-2.467-0.453-9.278,3.149-9c2.065,0.159,1.197,2.161,2.838,2.503
	c1.622,0.338,2.039-1.663,2.671-2.669c0.974-1.55,1.907-1.009,3.121-1.871c1.068-0.759,1.325-2.677,1.054-3.963
	c-0.565-2.68-3.394-3.708-3.842-6.167c-0.485-2.666-1.104-4.97-2.708-7.288c-0.786-1.136-1.224-2.244-1.921-3.424
	c-0.667-1.128-1.629-1.878-1.875-3.289c-0.278-1.591,0.528-2.378,1.008-3.704c0.727-2.007-0.042-2.343-1.337-3.593
	c-0.926-0.894-1.426-2.122-1-3.536c0.501-1.664,1.97-1.286,3.337-2.167c1.915-1.234,5.362-4.995,4.638-7.308
	c-2.969,0.175-5.51-2.291-7.354-4.321c-1.436-1.581-4.201-4.004-4.625-6.037c-0.613-2.942,1.574-5.982,2.171-8.667
	c0.256-1.155,0.668-3.303,0.333-4.499c-0.488-1.74-1.791-1.305-3.333-1.001c-1.53,0.302-2.183,0.858-3.129,2.204
	c-0.854,1.215-0.892,2.705-1.659,3.842c-0.71,1.052-1.985,1.928-3.212,2.121c-1.336,0.21-2.534-1.063-3.638-0.471
	c-0.23,1.835,0.886,3.948,1.762,5.517c1.114,1.994,0.844,3.605,0.042,5.792c-0.337,0.919-0.696,2.151-1.533,2.829
	c-0.827,0.67-1.899,0.72-2.763,1.375c-1.427,1.082-2.272,3.174-2.562,4.934c-1.524,0.266-2.945-0.533-4.434,0.23
	c-1.236,0.633-1.94,2.187-2.663,3.292c-0.479,0.733-1.435,1.716-1.548,2.508c-0.097,0.678,0.345,1.017,0.373,1.625
	c0.051,1.103-0.463,2.34-0.536,3.536c-0.097,1.578,0.21,2.15,1.13,3.204c0.56,0.642,2.283,1.713,2.507,2.455
	c0.343,1.136-1.094,2.739-1.137,4.008c-0.054,1.596,0.136,2.481-1.131,3.842c-1.83,1.966-5.073,3.098-7.703,2.991
	c-3.033-0.123-11.032-2.513-8.203-1.962c0.513,0.1-2.886-0.802-7.625,3.133c-2.061,1.711-4.778,2.402-7.329,2.154
	c-1.043-0.101-7.195-4.146-6.342-0.491"/>
<path id="Liguria" display="none" fill="none" stroke="#000000" stroke-miterlimit="10" d="M69.625,241.875
	c-1.546-1.525-3.973-2.595-3.25-5.125c0.402-1.408,2.345-3.138,3.5-4.097c1.5-1.246,3.313-2.15,4.469-3.678
	c1.148-1.517,1.718-3.714,1.909-5.472c0.208-1.916,0.954-5.348,3.371-4.601c1.935,0.598,3.383,2.093,5.251,2.628
	c2.184,0.626,3.94-0.531,5.128-2.281c0.751-1.105,1.187-1.347,2.497-1.625c1.251-0.265,1.422-0.902,1.746-2.129
	c0.534-2.023,0.756-3.802,0.754-5.996c-0.003-2.748,1.462-3.18,3.25-4.972c1.35-1.354,3.177-3.174,3.375-5.153
	c0.226-2.252,0.322-4.494,3.132-3.125c0.864,0.421,1.715,1.238,2.618,1.537c1.107,0.367,1.944-0.352,3-0.544
	c2.05-0.371,4.29,0.273,6.119-0.894c1.919-1.224,3.081-3.83,5.25-4.693c2.328-0.926,3.396,1.813,3.749,3.475
	c0.447,2.104,0.894,4.139,3.291,2.152c0.818-0.678,1.074-1.942,1.959-2.543c0.829-0.563,1.531-0.473,2.156-1.363
	c0.724-1.029,0.931-1.8,0.566-2.878c-0.381-1.127-0.771-2.084,0.784-2.503c2.414-0.65,3.329,2.19,4.656,3.347
	c0.832,0.725,1.809,0.388,2.844,0.531c1.326,0.184,1.187,0.663,2.091,1.535c1.845,1.779,3.474-0.408,5.541-0.041
	c2.295,0.408,3.513,2.197,5.996,1.378c0.559-0.184,0.465-0.578,1.122-0.527c0.592,0.046,1.091,0.686,1.469,1.064
	c0.746,0.748,1.536,1.496,2.162,2.317c2.095,2.747-0.33,3.045-1.665,5.027c-0.428,0.636-1.152,1.759-0.684,2.466
	c0.51,0.769,2.404,0.749,3.09,0.403c1.034-0.522,1.043-1.136,2.504-1.121c1.108,0.011,1.987,0.125,2.722,0.882
	c1.252,1.289,1.429,3.56,2.556,5.09c0.396,0.538,1.025,1.414,1.563,1.812c0.888,0.658,1.697,0.354,2.784,0.466
	c1.717,0.176,3.434,1.328,4.406,2.844c0.96,1.498,0.15,3.357,0.472,5.031c0.424,2.198,2.309,1.67,4.1,1.769
	c0.296,0.97,0.45,2.335,1.05,2.949c0.835,0.853,1.743,0.54,1.978,2.032c0.228,1.449-0.039,1.766-1.25,2
	c-1.194,0.231-2.414,0.144-3.504-0.25c-1.281-0.463-4.13-2.717-5.506-2.128c-1.004,0.43-0.433,2.17-1.872,1.634
	c-0.838-0.313-1.5-1.881-2.125-2.479c-0.822-0.787-1.876-1.236-2.878-1.781c-0.803-0.437-2.254-0.787-2.881-1.334
	c-0.549-0.479-0.899-1.543-1.394-2.132c-0.689-0.82-1.433-1.36-2.319-1.934c-0.857-0.554-1.688-1.023-2.684-1.316
	c-0.819-0.241-2.087-0.06-2.82-0.553c-0.825-0.555-1.565-2.415-2.156-3.228c-0.629-0.865-1.318-1.49-2.118-2.125
	c-0.673-0.535-1.42-1.199-2.235-1.497c-1.546-0.566-2.02-0.1-3.166,0.625c-1.868,1.182-2.547-1.82-4.003-2.84
	c-3.146-2.204-7.416-3.221-11.125-3.781c-2.353-0.355-4.627-0.893-7.097-0.634c-1.753,0.183-3.714,1.771-5.278,2.597
	c-1.785,0.943-3.692,1.507-5.256,2.75c-1.44,1.145-2.058,2.493-2.931,4.028c-0.959,1.686-2.076,3.538-3.666,4.594
	c-1.116,0.741-1.815,0.856-3.121,1.034c-1.263,0.172-1.368,0.696-2,1.756c-1.142,1.916-1.86,3.447-2.344,5.619
	c-0.276,1.238-0.628,1.596-1.43,2.597c-0.654,0.817-1.044,1.792-1.688,2.653c-2.324,3.106-6.701,5.209-10.031,6.969
	c-1.971,1.042-4.018,1.711-6.128,2.375c-1.893,0.595-3.564,1.957-5.625,1.559c-1.4-0.271-3.596-1.083-5-0.527"/>
<path id="Lombardia" display="none" fill="none" stroke="#000000" stroke-miterlimit="10" d="M123.75,119.75
	c0.498,0.285,1.322,2.039,1.531,2.619c0.325,0.903,0.386,1.854,0.622,2.756c0.48,1.833,1.875,3.183,1.972,5.125
	c0.123,2.476,0.199,3.404,1.906,5.215c1.426,1.513,2.328,3.219,2.225,5.41c-0.023,0.496-0.043,0.916-0.278,1.354
	c-0.813,0.197-1.816,0.769-2.576,1.147c-1.194,0.593-1.254,1.429-1.875,2.5c-0.657,1.131-1.391,1.197-2.75,1
	c-1.282-0.186-1.456-0.613-2.031-1.619c-1.327-2.319-2.787-1.149-3.246,0.991c-0.459,2.138-0.25,4.174-0.25,6.378
	c0,0.796-0.211,2.322,0.272,2.975c0.495,0.669,1.625,1.044,2.2,1.803c0.522,0.688,1.123,1.484,1.494,2.278
	c0.563,1.208,0.164,2.048,0.187,3.222c0.037,1.898,1.265,3.938,3.223,4.097c2.342,0.19,3.867-1.455,5.156-3.118
	c1.861-2.401,3.355-0.827,3.344,1.744c-0.006,1.238-0.49,1.93,0.403,2.844c0.727,0.744,1.832,0.841,2.603,1.5
	c1.524,1.302,0.746,3.069,2.744,4.184c0.667,0.372,1.975,0.515,2.375,1.091c0.572,0.825-0.235,2.25,0.126,3.131
	c0.367,0.896,1.514,0.948,2.347,1.528c1.143,0.797,1.177,1.541,1.656,2.725c0.704,1.736,2.105,3.616,3.402,4.997
	c0.699,0.744,1.643,1.439,2.694,0.625c0.817-0.632,0.49-2,0.403-2.875c-0.23-2.311-0.317-3.853,1.372-5.497
	c2.096-2.041,0-3.536-1.093-5.628c-1.017-1.947-1.352-4.119-0.059-6.006c1.262-1.841,2.463-3.24,4.527-3.963
	c0.828-0.29,1.896-0.592,2.625-1c0.975-0.546,1.463-1.538,2.5-2.034c0.864-0.413,1.873-0.153,2.722-0.531
	c1.097-0.488,0.895-0.999,2.26-0.578c0.327,1.759,0.38,4.507,2.643,4.869c1.608,0.258,1.34-1.192,2.274-1.607
	c1.127-0.501,1.481,1.331,2.32,1.515c1.515,0.332,3.532-2.116,4.903-2.758c2.312-1.083,4.034-1.354,5.878,0.691
	c1.585,1.756,0.397,3.866,1.222,5.906c1.396,3.452,3.263-1.011,4.528-1.54c1.678-0.701,4.213,1.265,5.344,2.318
	c0.647,0.603,1.291,1.554,2.157,1.877c1.172,0.439,2.662-0.182,3.875,0.085c1.78,0.392,3.169,2.57,4.719,3.535
	c1.045,0.65,1.853,1.246,3.159,0.85c1.206-0.366,1.313-1.24,2.028-2.097c1.657-1.983,3.111-2.015,5.206-0.934
	c2.067,1.067,3.935,1.768,6.044,2.372c1.03,0.295,1.976,0.617,2.819-0.217c0.946-0.936,1.041-1.718,2.518-1.975
	c2.57-0.446,4.723,0.052,7.25,0.628c1.43,0.326,5.922,2.02,6.753-0.028c0.598-1.474-2.478-3.892-3.219-5.031
	c-0.635-0.977-0.724-2.083-0.778-3.231c-0.065-1.404-0.288-1.795-1.75-2.15c-1.282-0.311-1.599,0.619-2.751,0.659
	c-1.329,0.046-2.354-1.209-3.255-2.009c-3.083-2.734-5.996-5.845-9.219-8.4c-1.426-1.13-3.971-1.278-4.927-2.867
	c-1.153-1.916-0.062-4.11-1.692-6.006c-1.33-1.547-2.639-3.25-4.534-4.125c-1.871-0.864-4.548-0.539-3.844-3.341
	c0.254-1.01,0.742-2.009,0.972-2.996c0.265-1.14-0.266-2.078,0.149-3.125c0.425-1.07,1.318-1.43,2.226-1.885
	c0.87-0.436,1.32-0.958,2.031-1.716c2.506-2.666,5.551-5.62,7.343-8.906c0.534-0.979,1.18-2.366-0.127-2.972
	c-0.666-0.308-2.194,0.004-3.003,0.091c-0.989,0.106-1.623,0.505-2.394,1.098c-0.752,0.578-1.647,2.022-2.469,2.29
	c-2.853,0.931-2.767-3.119-3.012-4.631c-0.164-1.008-0.219-2.062-0.521-3.022c-0.371-1.18-0.966-1.603-1.691-2.509
	c-1.517-1.898-0.016-3.575,0.597-5.594c0.632-2.082,1.115-4.319,1.65-6.472c0.781-3.144,2.695-6.384,1.938-9.718
	c-0.333-1.466-1.743-2.614-0.056-3.613c1.133-0.671,2.801-0.374,3.746-1.415c1.372-1.512,0.185-3.871-1.156-4.781
	c-1.76-1.195-4.147-1.182-5.598-2.662c-1.681-1.716-0.892-3.363-3.775-2.962c-2.373,0.33-3.305-1.005-4.472-2.774
	c-1.202-1.823-3.126-2.271-5.219-2.038c-2.346,0.261-3.08,2.565-4.059,4.41c-0.798,1.505-2.47,4.115-1.537,5.812
	c1.055,1.921,3.633,0.701,5.153,1.247c1.024,0.368,2.074,1.024,1.912,2.097c-0.175,1.163-1.27,1.476-1.878,2.15
	c-1.693,1.876,0.393,3.983,0.597,5.972c0.249,2.427-1.229,3.859-3.625,3.75c-2.584-0.117-3.539-1.447-3.869-3.881
	c-0.186-1.378,0.364-5.37-0.888-6.118c-0.731-0.436-2.268,0.116-3.092,0.208c-1.312,0.147-2.626,0.267-3.929,0.486
	c-2.549,0.428-5.163,1.144-7.222,2.778c-1.827,1.45-2.872,2.118-5.153,1.065c-1.953-0.901-3.206-3.023-3.972-4.919
	c-0.803-1.988-0.867-4.827-1.973-6.619c-0.777-1.258-1.918-0.244-3.152-1.004c-1.139-0.701-1.965-1.76-3.229-2.234
	c-0.009,0.29-0.185,0.54-0.168,0.84c-1.586,0.712-0.888,4.218-0.728,5.522c0.112,0.912,0.518,2.082,0.381,3.006
	c-0.135,0.908-0.78,1.682-0.881,2.619c-0.137,1.272-0.007,1.892-0.719,3c-0.586,0.912-1.089,1.856-1.653,2.743
	c-1.085,1.707-2.308,3.508-3.595,5.156c-2.478,3.173-5.035,5.616-4.534,9.975c0.236,2.058,1.665,3.534,2.625,5.375
	c0.742,1.423,0.745,4.451-0.597,5.659c-1.362,1.227-4.711,0.661-6.056-0.131c-1.894-1.116-2.276-2.62-2.598-4.653
	c-0.166-1.048-0.076-2.398-0.527-3.371c-0.498-1.073-1.494-1.221-2.222-2.007c-0.645-0.698-0.422-1.553-1-2.247
	c-0.923-1.106-1.523,0.134-2.347,0.909c-0.762,0.717-2.075,1.321-2.565,2.313c-0.509,1.03,0.001,2.122,0.259,3.153
	c0.801,3.195-1.584,8.621-4.972,9.5"/>
<path id="Lombardia_x5F_Fiume" display="none" fill="none" stroke="#000000" stroke-miterlimit="10" d="M148.438,109.438
	c-1.41-2.398,1.341-3.441,2.924-4.455c1.859-1.191,3.009-3.362,3.403-5.483c0.375-2.023-0.15-4.584,1.346-6.203
	c0.902-0.976,1.655-0.856,2.878-1.096c0.547-0.107,1.286-0.486,1.822-0.142c0.498,0.32,0.328,0.97,0.25,1.503
	c-0.287,1.974-2.694,2.822-2.608,4.924c0.036,0.88,0.566,2.19,0.097,3.059c-0.102,0.19-0.339,0.319-0.439,0.516
	c-0.117,0.232-0.124,0.543-0.174,0.8c-0.108,0.556-0.242,1.192-0.252,1.767c-0.016,1.01,0.752,1.974,1.204,2.872
	c0.453,0.901,0.725,1.839,0.858,2.813c0.163,1.199-0.142,2.524-1.596,1.75c-0.859-0.457-1.724-1.073-2.137-1.952
	c-0.36-0.764-0.515-1.258-1.264-1.802c-0.733-0.532-1.125-0.143-1.879,0.3c-1.292,0.759-2.975,1.944-4.371,0.766"/>
<path id="Lombardia_x5F_Fiume_1_" display="none" fill="none" stroke="#000000" stroke-miterlimit="10" d="M220.875,115.625
	c2.095,1.808-4.092,7.944-5.472,9.284c-1.603,1.556-3.23,3.001-4.928,4.435c-1.935,1.634-0.686,3.485-1.5,5.629
	c-0.38,1.001-0.793,1.624-0.85,2.778c-0.068,1.389-0.075,1.775,0.905,2.597c1.515,1.269,4.119,1.449,6.101,1.528
	c2.18,0.087,4.284-0.203,5.118-2.375c0.724-1.885,0.508-4.203,0.382-6.25c-0.06-0.974-0.337-1.937-0.479-2.875
	c-0.235-1.548,0.155-1.881,1.229-3.003c1.35-1.41,2.382-3.4,3.463-5.031c1.087-1.641,1.906-3.62,1.906-5.588
	c0-2.21-2.111-3.738-4.003-2.5c-0.59,0.386-1.065,0.791-1.497,1.372"/>
<path id="Trentino" display="none" fill="none" stroke="#000000" stroke-miterlimit="10" d="M246.75,111.597
	c-0.99,0.24-2.074-0.936-3.012-0.585c-1.052,0.395-0.533,1.504-0.614,2.456c-0.238,2.804-1.776,5.31-2.377,8.028
	c-0.411,1.859-1.284,3.85-3.254,4.596c-1.931,0.731-4.134-0.763-6.119,0.001c-1.752,0.674-3.357,2.919-5.469,1.381
	c-1.354-0.985-0.719-4.316-0.503-5.725c0.307-2.001,0.73-4.042,0.347-6.125c-0.166-0.901-0.625-2.257-1.877-2.226
	c-0.799,0.02-1.316,1.153-1.838,1.753c-1.846,2.122-3.227,0.821-5.534,1.597c-1.91,0.643-1.386,3.639-4.144,3.347
	c-5.34-0.565-3.267-6.158-3.863-9.841c-0.153-0.945-0.494-1.693-0.965-2.537c-0.634-1.137-0.636-1.275-0.281-2.466
	c0.567-1.904,1.095-3.742,1.878-5.634c1.542-3.726,3.592-6.897,3.375-11.119c-0.054-1.046-0.187-1.616-0.875-2.403
	c-0.554-0.634-1.543-1.142-1.106-2.222c0.842-2.085,4.739,0.109,5.484-2.375c0.659-2.197-1.495-3.557-3.134-4.25
	c-0.993-0.42-1.968-0.902-2.868-1.5c-0.662-0.44-2.022-1.045-2.35-1.75c-0.127-0.273-0.124-1.337-0.025-1.625
	c0.262-0.763,0.385-0.426,0.971-0.906c0.884-0.724,1.04-1.263,0.782-2.466c-0.56-2.602-3.314-2.301-4.285-4.496
	c-1.108-2.505,2.955-2.761,3.941-4.722c0.699-1.392-0.327-1.645-0.943-2.759c-0.428-0.774-0.408-1.724-0.216-2.65
	c0.373-1.799,3.229-1.971,5-1.881c1.269,0.064,2.663,0.141,3.874,0.382c1.772,0.352,2.507,0.033,3.723,1.565
	c0.916,1.154,1.594,2.381,3.034,2.962c1.834,0.74,4.168,0.248,5.868,1.129c1.271,0.659,1.339,1.384,2.978,1.468
	c0.977,0.05,2.329,0.217,3.147-0.406c1.206-0.92,1.928-4.035,2.119-5.597c0.488-3.991,2.193-7.672,6.281-9.215
	c2.175-0.821,3.562,1.918,5.384,1.003c1.962-0.985,2.964-2.537,5.466-2.294c0.971,0.095,2.107,0.605,3.131,0.756
	c1.132,0.166,2.278,0.191,3.344,0.528c2.085,0.658,3.962,1.223,6.149,0.323c1.965-0.808,3.684-2.286,5.625-3.223
	c1.754-0.847,3.671-1.338,5.473-2.028c1.709-0.654,4.282-1.201,6.152-0.596c2.842,0.918-0.27,2.909-1.031,4.125
	c-1.08,1.726-1.044,3.581-0.253,5.403c0.409,0.943,0.707,1.981,1.16,2.847c0.636,1.217,1.18,1.081,2.377,1.247
	c0.891,0.123,1.996,0.529,2.25,1.5c0.366,1.399-0.943,1.727-1.38,2.759c-0.98,2.313,2.586,1.967,3.849,3.146
	c1.457,1.361,2.078,3.388,3.369,4.754c0.473,0.5,1.907,0.967,1.668,1.846c-0.175,0.644-2.071,0.811-2.634,0.845
	c-1.148,0.068-2.031-0.263-3.122,0.244c-0.988,0.459-1.524,1.331-2.375,1.94c-1.017,0.729-2.206,0.839-3.387,0.244
	c-1.048-0.528-1.227-1.44-1.835-2.396c-0.578-0.909-0.956-1.533-2.162-1.378c-1.136,0.145-1.609,1.094-2.084,2.126
	c-0.734,1.595-0.571,4.108-2.185,5.221c-1.655,1.142-4.429,0.531-6.322,1.056c-3.009,0.834-0.933,2.005-0.181,3.622
	c1.084,2.332-0.995,3.09-2.128,4.722c-1.475,2.124-1.974,3.679,0.059,5.6c2.843,2.686,6.81,5.072,4.438,9.5
	c-1.039,1.939-2.408,2.63-4.621,2.653c-1.757,0.018-4.957-1.31-5.938,0.754c-0.777,1.636,0.019,4.099-0.653,5.871
	c-0.803,2.117-2.435,2.027-4.257,1.129c-2.167-1.069-3.058-1.857-5.28-0.41c-0.852,0.555-1.715,1.083-2.598,1.628
	C248.553,110.35,247.733,111.359,246.75,111.597z"/>
<path id="Venezia" display="none" fill="none" stroke="#000000" stroke-miterlimit="10" d="M320.375,118.625
	c0.958,0.991,0.543,3.647,0.743,5c0.168,1.133,0.513,3.675,1.632,4.237c0.505-0.901,1.366-1.607,1.75-2.606
	c0.426-1.109,0.191-1.991,1.382-2.603c1.663-0.856,3.807,0.243,5.463,0.562c1.996,0.385,3.913,1.223,5.93,1.412
	c1.351,0.127,1.578-0.113,2.101,1.254c0.303,0.792,0.443,1.643,0.772,2.475c1.494,0.113,2.727-3.589,3.635-4.572
	c1.673-1.813,3.22-1.76,5.34-0.912c1.733,0.693,2.73,2.586,3.531,4.122c1.11,2.127,1.53,3.321,1.344,5.729
	c-0.2,2.594,1.516,3.353,3.746,2.778c2.391-0.616,2.601-2.907,2.354-5.125c-0.464-4.164-5.257-6.684-8.469-8.656
	c-1.699-1.043-3.855-2.117-5.347-3.503c-1.711-1.588-0.633-3.704,0.253-5.431c0.695-1.354,2.711-4.496,0.09-4.659
	c-1.57-0.097-3.404,2.512-5.131,1.228c-2.747-2.044,3.629-7.84,4.978-9.235c0.939-0.971,1.821-1.365,0.871-2.588
	c-0.572-0.737-1.64-1.321-2.378-1.875c-2.006-1.505-3.59-1.991-6.106-2.156c-6.091-0.398-0.286-7.449,1.646-9.35
	c1.331-1.31,2.949-2.268,4.481-3.3c0.981-0.661,4.776-2.717,4.519-4.228c-0.189-1.107-4.303-2.949-5.375-3.278
	c-2.695-0.828-5.612,0.399-8.216,0.405c-2.915,0.007-5.63-1.095-8.501-1.368c-2.506-0.238-4.853-0.697-7.314-1.225
	c-1.206-0.259-2.583-0.139-3.728-0.5c-0.69-0.218-1.29-0.694-1.991-0.94c-1.324-0.466-3.36-1.234-4.74-1.071
	c-0.315,2.042,1.417,3.772,0.609,5.856c-0.413,1.065-1.049,1.47-2.128,1.754c-0.919,0.242-2.695-0.071-2.997,0.746
	c-0.33,0.896,0.861,1.919-0.092,2.781c-0.646,0.585-2.37,0.438-3.031,0.097c-1.007-0.519-1.971-1.62-3.005,0
	c-0.524,0.82,0.04,1.691-0.467,2.753c-0.721,1.513-2.278,2.973-3.629,3.997c-1.044,0.791-4.264,2.308-4.036,3.993
	c0.063,0.464,1.425,1.835,1.787,2.253c0.621,0.717,1.523,1.405,2.215,2.032c1.452,1.314,3.009,2.669,3.25,4.719
	c0.251,2.129-1.845,3.318-2.646,5.122c-0.711,1.601,0.222,4.213,0.653,5.875c0.508,1.961,1.903,3.291,3.25,4.719
	c1.242,1.316,2.51,2.999,4.094,4.037c2.331,1.529,6.399,0.844,8.781-0.153c1.255-0.525,0.689-0.326,1.875-0.003
	c0.59,0.161,1.606,0.334,2.256,0.159c0.717-0.193,1.113-0.93,1.996-0.887c0.708,0.034,1.372,0.87,1.997,0.506"/>
<path id="Veneto" display="none" fill="none" stroke="#000000" stroke-miterlimit="10" d="M284.5,151.25
	c-0.001-1.233,0.11-1.92,0.594-3.003c0.47-1.052,0.619-1.997,0.902-3.122c0.799-3.174,4.008-6.443,6.91-7.844
	c1.618-0.781,4.418-2.367,6.344-1.781c2.067,0.629,0.432,3.72-0.591,4.774c-1.435,1.479-3.402,2.445-4.781,3.976
	c-2.094,2.324,1.941,2.595,3.503,1.531c7.214-4.916,12.928-11.46,21.704-13.565c1.123-0.269,2.198-0.341,3.263-0.619
	c1.512-0.394,0.973-0.974,0.896-2.222c-0.165-2.679-1.031-4.139-2.209-6.506c-0.68-1.367-1.686-4.281-3.16-4.841
	c-2.273-0.864-5.597,0.586-7.927,0.694c-2.53,0.118-4.788,1.005-7.07-0.375c-1.729-1.046-3.739-2.294-4.843-3.98
	c-2.266-3.459-3.503-7.346-1.444-11.125c0.465-0.853,1.184-1.723,1.5-2.619c0.482-1.364-0.397-2.007-1.212-3.121
	c-1.201-1.641-2.812-2.929-4.037-4.5c-2.782-3.567,2.208-6.86,4.19-9.5c0.523-0.697,1.174-1.491,1.566-2.284
	c0.411-0.83,0.558-2.121,1.41-2.694c1.528-1.028,4.621,2.609,5.124-0.629c0.097-0.627-0.509-0.63,0.092-1.305
	c0.337-0.378,1.186-0.421,1.652-0.466c1.244-0.119,1.978,0.098,2.753-1c1.16-1.645,0.932-4.465-0.753-5.597
	c-1.817-1.221-3.864-1.052-5.998-1.152c-1.561-0.073-2.226-0.697-3.627-1.222c-1.103-0.414-2.356-0.316-3.544-0.278
	c-0.931,0.03-2.017,0.452-2.829,0.475c-0.592,0.016-1.031-0.243-1.628-0.225c-1.275,0.037-1.541,0.637-2.098,1.527
	c-0.577,0.925-1.283,2.129-2.399,1.478c-0.657-0.383-1.461-1.776-1.973-2.405c-1.441-1.773-1.987-1.984-4.512-1.832
	c-0.232,1.427-0.917,2.443-1.394,3.731c-0.502,1.356-1,2.25-2.125,3.243c-2.329,2.054-5.381,1.151-7.987,2.66
	c0.853,1.979,2.573,3.009,0.987,5.35c-0.961,1.418-2.994,2.848-2.878,4.872c0.084,1.471,1.989,3.774,3.034,4.719
	c1.301,1.177,3.547,2.107,4.131,3.906c0.626,1.927-0.491,3.869-2.037,5c-1.859,1.36-3.979,0.763-6.149,0.875
	c-2.728,0.141-3.724,0.656-3.851,3.5c-0.066,1.494,0.242,5.492-1.975,4.969c-0.919-0.217-1.863-0.886-2.9-1.09
	c-1.194-0.236-2.189-0.373-3.373,0.085c-2.17,0.839-3.837,2.719-6.002,3.634c-0.384,0.162-0.921,0.412-1.347,0.43
	c-0.553,0.023-0.687-0.243-1.119-0.311c-0.97-0.153-1.889,0.047-2.561,0.875c-1.2,1.479-1.287,4.188-1.47,6.043
	c-0.184,1.861-0.633,3.958-1.538,5.587c-1.093,1.97-2.458,2.335-4.581,2.119c-1.433-0.146-2.231-0.136-3.387,0.663
	c-0.807,0.558-1.381,1.288-2.248,1.715c-2.116,1.044-3.678-0.968-4.152-2.941c-0.341-1.419-0.149-3.012-0.248-4.518
	c-1.093,1.544-2.138,3.197-3.315,4.768c-1.172,1.564-2.889,3.61-2.91,5.597c-0.038,3.689,3.716,9.047-1.722,10.403
	c-3.011,0.751-1.916,2.186-0.809,4.375c0.489,0.967,0.837,1.776,0.906,2.847c0.071,1.099-0.143,1.852,0.778,2.625
	c1.193,1.001,2.462,0.374,3.853,0.744c0.909,0.242,1.558,0.992,2.369,1.476c2.059,1.23,3.44,2.066,4.593,4.183
	c1.035,1.899,2.697,3.102,4.125,4.601c0.639,0.671,1.246,1.797,2.157,1.996c0.964,0.211,1.588-0.553,2.5-0.881
	c1.083-0.39,2.147-0.6,2.723,0.506c0.419,0.806,0.434,2.007,0.649,2.875c0.243,0.982,0.52,2.042,1.095,2.903
	c0.725,1.084,1.957,1.533,2.903,2.372c0.972,0.862,1.553,1.663,2.874,1.944c1.154,0.246,2.344,0.066,3.506,0.253
	c2.065,0.332,3.094,3.092,5.003,3.152c0.789,0.025,1.969-0.606,2.741-0.847c1.477-0.461,1.375-0.721,2.162-1.903
	c1.36-2.041,4.25-1.75,6.49-1.75c3.854,0,7.744-0.28,11.423,0.909c1.583,0.512,2.916,1.931,4.458,2.312
	c1.477,0.366,2.875-1.279,4.283-0.232c1.361,1.012,1.228,3.53,1.467,5.017c0.202,1.255,0.947,4.263,2.469,2.494
	c1.259-1.464,0.483-3.717,1.662-5.215c1.594-2.025,1.896,1.593,2.838,2.231c3.976-2.732,2.75-7.468-0.747-9.893
	c-1.724-1.196-3.442-2.189-4.843-3.781c-1.737-1.975-0.918-3.657-1.279-6.097c-0.362-2.45-2.701-1.669-4.213-2.685
	C283.61,157.179,284.502,153.129,284.5,151.25z"/>
<path id="Emilia" display="none" fill="none" stroke="#000000" stroke-miterlimit="10" d="M156.009,194.409
	c-0.456-0.327-1.164-0.785-1.765-0.665c-0.526,0.105-0.651,0.85-1.146,0.981c-0.988,0.263-1.597-0.782-2.375-1.191
	c-1.234-0.649-1.549,0.094-2.729,0.091c-0.814-0.002-1.567-0.906-1.25-2c0.482-1.661,3.709-2.577,5.034-3.344
	c2.314-1.34,1.377-3.219,1.5-5.406c0.131-2.309,2.976-2.637,2.343-5.075c-0.257-0.989-0.638-1.921-1.153-2.766
	c-0.558-0.915-1.319-1.538-1.344-2.659c-0.037-1.677,1.35-4.409,2.156-5.875c0.827-1.505,2.385-3.499,3.967-4.125
	c1.011-0.401,2.03-0.345,3.002-0.903c0.806-0.463,1.436-1.105,2.257-1.569c1.717-0.97,3.944-1.188,4.864,0.972
	c0.501,1.176-0.005,5.562,2.504,4.131c1.174-0.669,0.856-1.826,2.376-1.35c1.266,0.397,1.36,1.359,2.656,0.493
	c2.022-1.353,3.852-2.693,6.49-2.621c2.402,0.065,4.04,2.089,4.485,4.347c0.176,0.893-0.202,2.402,0.771,2.978
	c0.872,0.516,2.362-0.379,3.006-0.944c0.855-0.75,0.749-1.115,1.966-1.028c1.305,0.093,2.037,0.72,3,1.5
	c0.81,0.656,1.712,1.16,2.497,1.862c1.238,1.107,1.104,1.455,2.85,1.104c2.747-0.553,3.9,1.607,5.646,3.284
	c2.315,2.223,4.233,0.139,6.01-1.476c0.497-0.451,1.207-1.362,1.869-1.409c0.777-0.055,1.923,0.93,2.594,1.284
	c1.936,1.02,4.417,2.411,6.669,2.344c2.331-0.07,4.026-1.658,6.24-2.341c2.31-0.712,5.382,0.66,7.756,1.084
	c1.332,0.238,2.208,0.555,3.646,0.409c1.071-0.109,2.055-0.43,3.07-0.555c2.393-0.295,4.339-0.671,6.527,0.687
	c1.758,1.09,3.164,3.073,5.375,2.969c1.308-0.062,2.963-0.517,3.869-1.5c0.708-0.768,0.864-1.801,1.604-2.502
	c1.385-1.313,4.536-1.652,6.402-1.5c2.459,0.2,5.06,0.243,7.503,0.619c2.473,0.381,4.119,1.976,6.091,3.287
	c1.254,0.833,2.131,0.869,3.531,0.219c1.139-0.529,2.096-1.39,3,0.119c0.781,1.303,0.5,3.289,0.625,4.756
	c0.053,0.621,0.614,1.888,0.127,2.225c-0.405,0.281-0.915-0.276-1.252-0.199c-0.446,0.102-0.804,0.438-1.131,0.821
	c-2.294,2.685-2.163,6.262-1.631,9.509c-1.439,0.076-3.672-0.526-4.869,0.019c-1.578,0.719-2.316,2.198-1.865,3.878
	c0.44,1.643,1.667,1.978,3.371,1.747c1.496-0.203,2.574-1.588,3.978-1.728c0.902,1.907,1.164,3.46,1.272,5.603
	c0.12,2.38-0.646,4.588-0.097,6.875c0.962,4.01,2.336,8,4.566,11.656c0.843,1.382,1.58,2.929,2.562,4.216
	c1.443,1.891,3.456,3.111,4.968,4.972c2.348,2.889,6.533,7.083,10.479,7.175c0.461,0.91,0.537,2.21,0.522,3.231
	c-0.02,1.372-0.15,1.587-1.378,2.031c-2.36,0.855-4.38,0.855-6.906,0.465c-1.905-0.294-4.817-0.224-4.688-2.747
	c0.094-1.83,0.538-4.934-1.744-5.909c-1.089-0.465-2.458,0.405-3.278,1.01c-1.154,0.852-1.97,1.633-3.257,2.308
	c-1.31,0.687-2.914,0.828-4.247,1.372c-1.363,0.556-2.887,0.49-3.465,2.063c-0.612,1.667-0.592,3.563-1.287,5.28
	c-0.819,2.024-2.006,2.392-4.125,2.5c-3.025,0.154-4.536-0.915-7.174-2c-2.224-0.914-4.4-1.489-6.457-2.844
	c-2.942-1.937-4.702-8.338-3.649-11.684c0.278-0.884,0.874-1.62,1.44-2.347c0.497-0.638,2.149-2.007,2.096-2.875
	c-0.161-2.622-4.205-0.584-5.256-0.991c-1.14-0.441-0.27-1.85-1.131-2.606c-0.737-0.646-2.668-0.54-3.521-0.306
	c-1.062,0.292-1.576,1.06-2.503,0.156c-0.68-0.664-0.952-2.012-1.494-2.778c-0.631-0.893-1.596-1.68-2.725-1.726
	c-0.8-0.032-3.342,0.598-3.856,1.278c-0.336,0.444-0.028,1.017-0.385,1.472c-0.363,0.462-1.215,0.775-1.752,0.902
	c-1.274,0.303-2.331,0.173-1.543,1.875c0.355,0.768,0.949,1.003,1.193,1.819c0.402,1.343-0.094,1.047-1.281,1.154
	c-2.056,0.185-4.303,0.823-6.387,0c-1.46-0.577-2.93-2.893-4.738-1.874c-1.602,0.903-1.845,3.504-3.979,3.858
	c-0.313-2.921-4.147-4.701-6.14-6.509c-2.079-1.886-4.318-0.769-6.601,0.056c-0.411,0.148-0.943,0.304-1.406,0.372
	c-1.159,0.169-1.459,0.203-2.027-0.6c-0.712-1.004-1.378-2.049-2.129-3.047c-1.399-1.857-2.006-3.325-4.469-4.041
	c-2.632-0.766-4.61,0.462-7.25,0.41c-2.101-0.042-3.048-2.144-4.216-3.653c-0.66-0.853-1.239-1.399-2.196-1.816
	c-0.867-0.378-2.873-0.415-3.459-1.056c-1.248-1.365,1.012-4.184-0.129-5.822c-1.758-2.526-6.091-2.948-8.631-1.899
	c-2.258,0.932-4.505,4.899-6.972,4.728c-0.459-1.629-1.808-2.222-3.367-2.384c-1.017-0.105-2.19,0.095-3.177,0.435
	c-0.783,0.27-1.64,0.91-2.478,0.443c-1.491-0.831-1.357-2.875-0.658-4.004c0.669-1.079,2.262-2.062,1.758-3.541
	C159.52,196.717,157.124,195.209,156.009,194.409z"/>
<path id="San_x5F_Marino" display="none" fill="none" stroke="#000000" stroke-miterlimit="10" d="M291.25,241.792
	c-0.213-0.301-0.194-0.843-0.248-1.21c-0.046-0.314-0.181-0.63-0.211-0.956c-0.061-0.646,0.04-1.393,0.302-1.949
	c0.3-0.637,0.932-0.968,1.583-1.167c0.774-0.236,1.206-0.771,1.857-1.186c0.634-0.405,1.438-0.575,2.208-0.367
	c0.789,0.214,1.051,1.044,1.218,1.756c0.155,0.664,0.184,1.398,0.208,2.121c0.024,0.727,0.154,1.558-0.05,2.26
	c-0.208,0.717-0.552,1.129-1.208,1.438c-0.384,0.181-0.69,0.271-1.024,0.561c-0.332,0.288-0.438,0.292-0.852,0.209
	c-0.741-0.147-1.482-0.226-2.199-0.499c-0.61-0.232-1.11-0.595-1.701-0.852c-0.012-0.042-0.001-0.076-0.007-0.118"/>
<path id="Toscana" display="none" fill="none" stroke="#000000" stroke-miterlimit="10" d="M264,310.875
	c0.689,1.6,1.44,1.533,0.503,3.244c-0.606,1.107-0.733,2.067-0.851,3.284c-0.212,2.204-0.686,4.082-2.525,5.469
	c-1.699,1.282-4.171,1.87-5.631,3.259c-1.967,1.872-0.006,3.527-0.619,5.872c-0.509,1.948-3.799,3.388-5.628,4.001
	c-2.073,0.694-4.314-0.127-6.469-0.372c-2.017-0.23-4.338-1.323-6.406-0.756c-1.463,0.401-2.803,3.539-4.597,1.125
	c-0.648-0.873-0.397-1.634,0.475-2.219c1.264-0.847,2.23-0.652,2.695-2.326c0.396-1.426,0.279-3.084-0.605-4.303
	c-1.05-1.448-2.029-3.127-3.441-4.287c-1.277-1.049-2.658-2.295-3.306-3.838c-0.613-1.462-0.733-3.503-2.004-4.753
	c-1.224-1.203-4.059-1.792-5.622-2.122c-2.056-0.433-4.578,0.605-4-2.528c0.705-3.82,1.363-8.283-2.82-10.027
	c-1.627-0.678-4.485-0.677-5.933,0.371c-1.091,0.789-3.293,3.622-4.219,1.156c-0.756-2.014,0.665-4.184,1.497-5.754
	c0.927-1.749,1.917-3.247,2.51-5.121c0.519-1.64,0.516-4.547,0-6.131c-0.571-1.755-1.059-3.769-1.854-5.396
	c-0.837-1.714-2.565-3.016-3.124-4.848c-0.606-1.985-1.563-3.017-2.903-4.625l0.5,0.5c-1.24-2.099-1.875-3.661-1.875-6.125
	c0-2.18,0.226-4.344,0.125-6.5c-0.187-3.983-2.555-7.511-3.781-11.25c-0.631-1.925-1.263-3.601-1.748-5.5
	c-0.542-2.124-1.301-4.001-2.721-5.75c-1.308-1.612-2.738-3.239-4.032-4.85c-0.297-0.37-0.752-0.688-0.937-1.153
	c-0.28-0.702,0-0.87-0.028-1.628c-0.043-1.141-0.646-1.728-1.372-2.518c-0.711-0.774-1.299-1.608-1.975-2.384
	c-0.945-1.084-1.925-0.777-2.937-1.435c-0.939-0.611-0.456-1.35-0.469-2.406c-0.015-1.173-0.409-1.612-1-2.5
	c-1.489-2.24-3.293-3.036-5.879-3.619c-1.931-0.435-4.089-3.691-1.868-5.009c0.885-0.526,2.025-0.673,2.879-1.219
	c0.698-0.447,1.152-1.157,1.774-1.746c1.497-1.418,3.227-2.099,5.344-1.905c1.547,0.142,4.358,1.916,5.152,3.221
	c0.62,1.019,0.062,1.914,0.123,2.9c0.068,1.107,0.724,1.506,1.5,2.247c1.52,1.453,2.885,3.017,4.509,4.35
	c2.032,1.667,3.661,1.803,6.091,1.281c4.009-0.861,7.408,3.064,9.278,6.219c1.37,2.313,3.295,3.122,5.835,1.946
	c2.351-1.088,3.678-2.365,6.144-0.447c2.276,1.771,5.145,9.019,8.778,5.062c1.27-1.383,0.364-3.324,2.867-2.69
	c1.945,0.493,3.575,1.695,5.603,1.784c1.079,0.048,4.281,0.591,5.031-0.091c1.181-1.073-0.82-3.151-0.765-4.39
	c2.216-0.618,3.988-0.133,5.203-2.521c1.278-2.513,3.497-1.505,4.434,0.85c0.922,2.316,2.828,2.658,5.344,2.406
	c1.455-0.146,1.87-0.607,2.875,0.844c0.583,0.842,0.608,1.99,1.625,2.375c1.055,0.399,2.479-0.642,3.288,0.241
	c0.683,0.745,0.362,2.364-0.166,3.012c-0.574,0.703-1.428,0.835-2.087,1.427c-0.82,0.736-1.066,1.657-1.16,2.722
	c-0.301,3.414,3.121,8.481,6,10.284c1.206,0.755,2.575,1.35,3.875,1.713c1.417,0.395,2.385,1.504,3.744,2.156
	c2.105,1.009,6.725,2.745,8.506,0.347l-0.375,0.125c0.352,0.239,0.931,0.226,1.33,0.421c0.555,0.271,0.875,0.892,1.544,0.988
	c2.268,0.32,3.028-2.838,5.751-0.999c1.444,0.976,2.899,4.371,0.528,4.965c-2.082,0.522-4.492-0.782-6.153,0.969
	c-1.841,1.942,1.031,3.166-0.597,5.059c-0.549,0.638-1.735,0.979-2.187,1.719c-0.493,0.807-0.156,2.081-0.063,2.976
	c0.1,0.959,0.358,2.167-0.306,3c-0.525,0.658-1.544,0.87-2.222,1.279c-0.968,0.584-1.853,1.1-0.75,1.878
	c0.776,0.547,1.982,0.249,2.537,1.344c0.368,0.726,0.063,2.098,0.21,2.903c0.225,1.233,0.662,1.719,1.628,2.375
	c0.901,0.611,1.926,1.116,1.096,2.377c-0.406,0.617-1.537,1.101-2.219,1.404c-1.723,0.767-1.869-0.118-3.378-0.497
	c-1.453-0.365-2.056,0.474-2.371,1.743c-0.256,1.031-0.301,2.18-1.098,3.006c-0.693,0.718-1.77,0.804-2.312,1.685
	c-1.319,2.146,0.266,4.293,1.13,6.162c0.54,1.168,0.357,1.74-0.068,2.869c-0.401,1.066-0.312,1.972-0.434,3.097
	c-0.101,0.929-0.457,1.832-0.597,2.778c-0.137,0.929-0.028,1.889-0.403,2.75c-0.37,0.849-1.334,1.845-2.097,2.354
	c-1.013,0.675-1.745,0.379-2.875,0.393c-0.693,0.009-2.474,0.442-2.728,1.246c-0.24,0.76,0.838,1.574,0.978,2.256"/>
<path id="Umbria" display="none" fill="none" stroke="#000000" stroke-miterlimit="10" d="M329.841,315.494
	c0.955-1.472,3.122-0.302,4.069-1.853c0.662-1.084,0.719-3.481-0.272-4.363c-2.136-1.903-4.285-0.202-6.387-1.177
	c-1.954-0.907-2.691-3.193-4.744-3.732c-2.053-0.539-3.902-0.414-5.348-2.122c-0.802-0.946-0.778-1.222-0.909-2.496
	c-0.107-1.043-0.248-2.071-0.25-3.125c-0.005-2.2,0.474-4.07-0.906-5.996c-1.565-2.184-1.198-3.61-0.838-6.129
	c0.306-2.141-0.326-3.798-1.604-5.41c-1.401-1.767-1.903-3.345-1.903-5.59c0-1.726-0.266-4.9-2.653-4.159
	c-1.782,0.553-2.845,3.27-4.972,2.416c-1.89-0.759-3.118-2.996-4.09-4.631c-1.129-1.899-2.252-2.592-3.875-3.856
	c-0.411,0.349-0.864,0.576-1.388,0.625c-0.471,1.325-3.332,2.068-3.278,0.107c0.048-1.747,2.553-2.729,0.791-4.531
	c-1.828-1.869-2.921,0.131-4.538,0.659c-1.062,0.347-2.707-0.092-3.55,0.777c-0.492,0.507-0.383,0.908-0.9,1.342
	c-0.667,0.561-1.604,0.621-2.177,1.406c-0.698,0.958-0.144,1.954,0.006,2.971c0.155,1.048,0.347,1.925-0.591,2.66
	c-1.03,0.807-2.205,0.02-3.165,0.619c-2.455,1.531,2.22,3.006,2.981,3.756c1.501,1.479,0.083,3.75,1.622,5.25
	c0.53,0.516,1.756,0.673,1.752,1.469c-0.003,0.869-1.532,1.416-2.1,1.618c-1.23,0.438-1.79,0.348-2.975-0.149
	c-0.759-0.319-1.756-0.845-2.684-0.384c-1.498,0.744-1.245,4.251,0.156,4.79c1.974,0.76,4.004-1.844,6.127-1.502
	c1.912,0.308,3.428,2.081,3.5,4c0.06,1.6-1.368,4.357-2.902,4.971c-2.073,0.83-3.364-0.763-4.841-1.875
	c-1.054-0.793-1.526-1.378-2.226-2.506c-0.486-0.785-1.03-1.865-1.903-2.216c-4.749-1.91-0.977,7.957-1.003,9.625
	c-0.018,1.183-0.325,2.077-0.722,3.153c-0.401,1.086-0.348,1.948-0.403,3.098c-0.052,1.089-0.274,2.16-0.472,3.152
	c-0.131,0.654-1.025,1.974-0.999,2.5c0.045,0.918,1.452,1.247,1.881,2.063c0.447,0.851,0.403,2.3,0.341,3.284
	c-0.114,1.802-2.734,3.248-1.16,5.035c1.164,1.322,4.291,1.652,5.91,1.243c0.975-0.246,1.726-1.244,2.618-1.436
	c1.074-0.231,1.896,0.485,2.625,1.159c1.007,0.931,0.964,1.808,1.629,2.756c0.28,0.399,0.732,0.5,1.037,0.966
	c0.254,0.388,0.332,0.829,0.469,1.281c0.539,1.772,0.286,3.754,1.906,4.963c1.595,1.19,4.028,1.273,4.468,3.156
	c0.421,1.803,0.462,4.146,2.123,5.28c1.895,1.294,4.508,1.8,5.968-0.156c1.338-1.793,1.458-3.946,4.281-3.524
	c1.9,0.284,3.997,0.989,4.881-1.347c0.799-2.11,0.513-4.204,3.369-4.625c2.046-0.302,2.688-1.098,4.159-2.601
	c1.362-1.392,2.434-1.178,4.319-1.296c1.706-4.18,6.859-1.402,8.931-4.694C329.845,318.872,328.965,316.844,329.841,315.494z"/>
<path id="Umbria_x5F_Fiume" display="none" fill="none" stroke="#000000" stroke-miterlimit="10" d="M274.875,285.875
	c-0.82,1.653,0.044,3.616,1.274,4.976c1.049,1.16,2.976,3.291,4.601,3.406c4.729,0.334,5.706-5.304,2.972-8.229
	c-1.17-1.252-2.637-0.937-4.222-0.775c-1.397,0.143-3.316-0.11-4.625,0.372"/>
<path id="Marche" display="none" fill="none" stroke="#000000" stroke-miterlimit="10" d="M311.837,238.166
	c-0.951-0.334-2.122-0.032-2.947-0.705c1.434,0.766,1.32,1.879,1.027,3.37c-0.227,1.157-1.034,1.918-2.166,2.358
	c-1.091,0.424-1.938,0.26-2.834-0.476c-1.262-1.038-1.52-0.567-2.833-0.022c-0.346,0.144-0.848,0.29-1.231,0.225
	c-0.495-0.084-0.372-0.259-0.765-0.481c-0.768-0.436-1.227-0.465-2.004-0.165c-0.631,0.244-1.26,0.702-1.915,0.815
	c-0.68,0.117-1.473-0.029-2.142-0.085c-1.697-0.144-3.057-0.512-2.858-2.415c0.091-0.876,0.866-3.875-0.733-3.083
	c-1.224,0.606-2.04,1.985-3.433,2.333c-1.465,0.366-3.376-0.557-4.671,0.501c-1.33,1.087-0.732,2.667-0.227,3.914
	c0.726,1.794-1.063,2.141-1.187,3.667c-0.104,1.276,1.718,2.553,2.916,2.419c0.749-0.084,1.384-0.648,2.083-0.815
	c0.79-0.188,1.805-0.196,2.582,0.038c1.653,0.499,1.969,1.607,2.398,3.027c0.188,0.623,0.21,1.621-0.419,2.024
	c-0.704,0.451-1.476-0.24-2.194-0.257c-1.53-0.037-3.918,0.7-5.112,1.676c-1.991,1.629-0.452,5.12,1.829,5.471
	c2.003,0.308,4.607-2.938,6.004-2.337c1.616,0.695-0.315,4.836-0.655,5.999c1.252,1.552,2.62-0.523,3.521-1.161
	c1.463-1.038,2.219-0.231,3.499,0.954c1.798,1.664,2.591,4.867,4.422,6.257c0.999,0.759,2.577,0.581,3.699,0.08
	c0.955-0.426,2.268-2.557,3.184-2.466c2.37,0.235,2.238,5.405,2.325,6.845c0.192,3.167,2.743,4.694,3.333,7.533
	c0.599,2.881-0.295,5.37,1.213,7.925c1.429,2.422,1.252,4.867,1.112,7.704c-0.193,3.889,1.589,4.014,4.674,5.5
	c1.012,0.487,2.246,0.747,3.135,1.375c1.235,0.874,1.728,2.177,3.196,2.629c2.319,0.714,5.741-0.169,6.637,3.162
	c0.407,1.513-0.377,2.276,0.413,3.796c0.439,0.845,0.94,1.978,1.742,2.583c0.82,0.619,2.685,0.828,3.712,0.584
	c1.662-0.395,1.695-1.401,2.288-2.805c0.833-1.973,1.775-4.434,3.074-6.129c2.219-0.115,5.431,2.281,7.351,0.85
	c1.214-0.904,0.81-2.492,1.963-3.378c1.263-0.97,2.879-0.551,4.324-0.834c6.528-1.276,4.301-9.838,2.208-14.333
	c-2.271-4.879-4.853-9.912-7.667-14.583c-1.26-2.092-2.714-4.188-3.875-6.251c-1.559-2.77,0.153-5.356,0.009-8.165
	c-0.118-2.308-2.582-4.146-4.842-4.176c-1.354-0.018-2.594,0.555-3.991,0.171c-1.261-0.347-2.277-1.236-3.334-2.028
	c-1.946-1.459-3.801-3.076-5.633-4.675c-0.815-0.712-1.61-1.628-2.534-2.125c-1.253-0.675-2.659-0.748-3.841-1.5
	c-1.293-0.823-2.357-2.311-3.667-3.334c-1.269-0.991-3.393-1.37-4.337-2.325c-0.5-0.506-0.607-1.507-1.123-2.04
	c-0.871-0.901-1.79-0.732-2.71-1.288C312.953,238.984,312.825,238.514,311.837,238.166z"/>
<path id="Abruzzo" display="none" fill="none" stroke="#000000" stroke-miterlimit="10" d="M337.625,318.25
	c0.451,1.975,3.112,2.344,3.378,4.744c0.309,2.792-2.857,2.537-4.753,2.159c-1.858-0.371-4.294-0.978-6.25-0.436
	c-0.831,0.23-2.136,1.018-2.406,1.881c-0.357,1.14,0.773,1.798,1.534,2.496c0.727,0.668,1.911,1.248,1.534,2.406
	c-0.332,1.017-1.511,1.128-2.256,1.653c-0.73,0.514-1.58,1.606-1.28,2.597c0.333,1.1,1.673,0.868,2.496,1.504
	c1.22,0.943,0.017,1.042-0.212,2.031c-0.201,0.866,0.437,1.208,0.965,1.965c1.014,1.453,1.928,3.077,3.028,4.473
	c1.138,1.443,4.015,3.847,3.704,5.881c-1.662,1.011-4.44,1.464-6.366,0.671c-2.079-0.857-3.289-2.446-5.744-1.653
	c-2.034,0.657-1.838,2.984-2.025,4.851c-0.233,2.325,0.884,3.381,2.809,4.625c1.687,1.09,3.463,2.033,5.223,3.059
	c1.604,0.935,3.811,1.722,4.872,3.219c0.599,0.846,0.688,1.772,0.875,2.75c0.296,1.541,0.452,1.873,2.006,2.594
	c1.891,0.878,2.982,1.962,4.528,3.372c1.425,1.3,3.331,1.758,5.246,1.315c2.137-0.494,3.057-2.922,5.344-2.909
	c2.56,0.015,2.307,2.833,3.754,4.222c1.63,1.566,4.061,1.512,6.121,1.909c1.87,0.36,3.934,1.505,5.875,1.25
	c1.416-0.187,1.62-0.87,2.494-1.874c0.899-1.033,1.739-0.866,3.034-0.879c1.7-0.016,1.529-0.349,1.719-1.875
	c0.133-1.069,0.443-2.204,0.506-3.247c0.057-0.94-0.24-2.04,0.338-2.784c0.509-0.655,1.819-1.104,2.531-1.468
	c1.542-0.789,1.99-1.655,3.097-2.863c0.522,1.205-1.597,5.296,1.406,4.993c1.032-0.104,1.774-1.266,3.007-0.887
	c1.199,0.368,0.993,1.636,0.994,2.629c0,1.187-0.28,2.187,0.632,2.975c0.728,0.629,1.936,0.735,2.747,0.281
	c1.709-0.956,1.922-3.729,3.465-5.034c0.705-0.596,1.709-0.998,2.281-1.716c0.736-0.925,0.753-2.204,0.75-3.378
	c-0.007-2.467,0.159-3.777,1.906-5.591c0.762-0.791,1.509-1.014,2.344-1.656c1.192-0.917,0.775-1.542,0.101-2.624
	c-0.665-1.067-0.943-1.644-1.097-3.006c-0.132-1.173,0.052-2.088-1.059-2.844c-1.702-1.158-3.676-1.303-5.476-2.123
	c-1.197-0.545-2.387-0.838-3.593-1.281c-1.035-0.381-1.47-1.051-2.246-1.784c-1.525-1.44-2.377-2.928-3.504-4.715
	c-0.9-1.427-2.782-2.412-4.372-3.031c-3.152-1.225-6.236-5.216-7.906-8.216c-2.082-3.742-3.943-7.835-5.503-11.881
	c-0.797-2.068-1.289-4.18-2.063-6.247c-0.746-1.992-1.726-3.263-2.906-4.994c-1.638-2.401-3.005-0.847-5.097,0.275
	c-1.238,0.664-1.557,0.43-2.771,0.469c-1.356,0.043-1.724,0.849-2.291,1.972c-0.459,0.91-0.485,1.56-1.312,2.056
	c-0.782,0.468-1.669,0.384-2.528,0.006c-1.017-0.447-1.372-1.056-2.631-0.909c-1.095,0.128-1.753,0.606-2.216,1.619
	c-0.785,1.719-0.83,3.572-1.872,5.128c-0.663,0.989-3.423,3.006-4.656,2.128"/>
<path id="Lazio" display="none" fill="none" stroke="#000000" stroke-miterlimit="10" d="M249.025,334.653
	c0.92-0.584,2.083-0.347,3.1-0.559c0.945-0.197,2.254-0.655,2.881-1.466c1.091-1.412-0.071-1.55-0.731-2.535
	c-2.764-4.125,5.366-5.638,7.072-7.996c1.377-1.904,2.423-3.398,2.771-5.729c0.136-0.906,1.107-2.256,1.018-3.144
	c-0.102-1.02-1.589-2.11-1.995-3.072c1.091-0.869,1.753-0.854,3.109-0.902c1.037-0.037,1.818-0.704,2.778-0.597
	c1.888,0.211,3.329,2.376,3.222,4.096c-0.122,1.963-1.891,3.275-2.59,5.125c-0.387,1.024-0.451,1.832-1.066,2.719
	c-0.699,1.008-1.024,1.419-0.969,2.781c0.123,3.063,4.864,9.966,7.722,5.244c0.946-1.563,1.005-4.056,0.653-5.869
	c-0.162-0.836-1.021-2.014-0.597-2.875c0.495-1.003,2.041-0.911,2.972-0.875c2.227,0.086,3.293,1.413,4.278,3.253
	c0.936,1.749,2.332,3.205,2.854,5.116c0.295,1.082,0.582,1.883,1.619,2.637c0.951,0.693,2.002,0.556,3,1
	c1.68,0.748,1.711,3.462,2,5.244c0.412,2.546,2.923,3.299,5.378,3c2.827-0.345,0.865-4.323,3.622-4.625
	c1.907-0.209,4.195,2.378,5.719,0.371c1.25-1.646,0.903-3.763,2.656-5.085c0.876-0.66,1.835-0.958,2.618-1.69
	c0.759-0.71,1.323-1.715,2.256-2.229c1.907-1.05,4.148-0.203,6.126-1.344c1.487-0.857,3.227-2.379,4.877-2.782
	c1.185-0.289,1.954-0.218,2.869-1.24c0.658-0.735,1.32-1.696,1.632-2.624c0.33-0.983,0.207-2.127,0.508-3.11
	c1.3,0.03,2.134-0.22,3.369,0.482c1.067,0.606,1.711,1.621,2.4,2.625c1.056,1.54,2.93,3.084,3.337,4.875
	c0.317,1.395,0.563,2.707-1.118,2.625c-0.964-0.047-1.919-0.276-2.896-0.375c-2.213-0.224-5.225-1.619-7.003,0.341
	c-0.616,0.679-1.172,2.064-0.976,3.04c0.236,1.171,1.586,1.175,2.006,2.216c0.717,1.777-3.678,3.229-2.043,5.436
	c0.621,0.839,1.961,0.269,2.38,1.47c0.377,1.078-0.847,1.392-0.849,2.371c-0.004,1.259,2.885,3.654,3.722,4.531
	c1.222,1.282,2.067,2.862,3.288,4.221c1.022,1.138,2.538,3.227,0.471,4.126c-0.837,0.364-2.552,0.486-3.468,0.469
	c-1.356-0.025-1.72-0.623-2.781-1.319c-0.75-0.492-1.569-0.957-2.347-1.434c-1.281-0.787-2.371-0.369-3.857-0.325
	c-0.294,1.02-0.967,1.746-1.174,2.732c-0.192,0.914-0.286,2.064-0.223,3c0.161,2.377,2.074,3.559,4.006,4.5
	c0.816,0.398,1.394,0.964,2.15,1.469c0.829,0.554,1.814,0.627,2.722,1.031c0.955,0.426,1.749,1.367,2.622,2
	c0.657,0.477,1.523,0.891,2.032,1.594c1.093,1.509,0.064,3.896,1.841,5.177c0.872,0.629,2.001,0.583,2.906,1.066
	c1.057,0.565,1.54,1.616,2.316,2.443c1.396,1.489,3.782,2.223,5.558,1.34c1.656-0.823,2.28-2.761,4.223-3.127
	c1.257-0.237,2.27,0.091,3.253,0.728c1.458,0.945,0.652,1.339,0.872,2.778c0.284,1.855,3.802,1.902,5.372,2.472
	c1.081,0.392,2.117,0.837,3.098,1.431c1.211,0.734,1.259,1.174,1.127,2.569c-0.228,2.404,0.341,3.675,1.434,5.906
	c0.865,1.765,1.696,4.219,0.087,5.719c-1.188,1.107-2.94,1.298-4.137,2.355c-0.994,0.877-1.506,2.519-1.734,3.799
	c-0.187,1.05,0.327,1.946,0.253,3c-0.109,1.548-1.132,4.216-2.628,4.972c-1.718,0.868-4.164-0.317-5.872-0.75
	c-1.878-0.475-3.602,0.801-4.972,2.062c-1.859,1.71-2.943,0.428-4.785-0.625c-1.682-0.962-3.234-1.606-4.893-2.631
	c-1.669-1.031-3.768-1.657-5.725-1.653c-2.477,0.005-3.991,1.179-5.879,2.469c-1.436,0.982-4.659,2.414-6.347,1.262
	c-0.599-0.409-1.285-2.205-1.687-2.853c-0.529-0.852-1.094-1.76-1.619-2.622c-0.877-1.44-2.017-3.915-3.709-4.607
	c-1.923-0.785-4.573,0.017-6.634-0.497c-1.796-0.448-4.897-2.031-5.847-3.656c-1.079-1.846-2.273-3.638-3.441-5.497
	c-2.251-3.584-6.11-5.654-9.587-7.907c-4.114-2.665-5.309-6.864-7.656-10.715c-2.048-3.359-3.723-7.046-6.81-9.535
	c-0.608-0.49-1.234-1.107-1.903-1.5c-1.339-0.787-3.166-0.807-4.631-1.313c-1.292-0.446-3.556-0.728-4.607-1.494
	c-0.725-0.529-1.244-1.769-1.643-2.537c-1.757-3.377-3.04-6.764-5.466-9.775c-1.513-1.878-3.332-2.899-5.165-4.441
	C249.497,339.046,246.297,336.384,249.025,334.653z"/>
<path id="Lazio_x5F_Fiume" display="none" fill="none" stroke="#000000" stroke-miterlimit="10" d="M271.375,318.625
	c-4.495,0.087-5.835,7.107-2.969,9.854c1.121,1.075,4.3,2.109,5.847,1.399c1.704-0.782,2.469-3.689,2.372-5.378
	c-0.186-3.246-2.644-5.208-5.5-6.125"/>
<path id="Molise" display="none" fill="none" stroke="#000000" stroke-miterlimit="10" d="M367.5,397.333
	c-1.064-1.426,1.201-2.192,2.002-3.166c0.885-1.076-0.219-2.223-0.731-3.352c-0.591-1.303-0.915-2.651-1.123-4.046
	c-0.212-1.427-0.782-3.04-0.648-4.52c0.228-2.526,4.705-3.074,6.669-3.662c1.439-0.431,2.449-1.531,2.767-2.984
	c0.292-1.332-0.202-2.811,0.229-4.102c0.499-1.492,2.381-1.439,3.479-2.356c0.804-0.672,1.574-2.508,2.611-2.394
	c0.925,0.102,0.667,0.68,0.583,1.504c-0.072,0.713-0.116,1.39,0.663,1.768c0.909,0.441,1.705-0.578,2.666-0.356
	c0.747,0.173,1.069,1.017,1.44,1.643c0.697,1.177,0.049,2.786,0.975,3.854c0.411,0.475,0.921,1.071,1.585,1.007
	c0.414-0.04,1.394-0.554,1.754-0.752c1.135-0.623,1.444-2.163,2.329-3.084c0.955-0.994,2.916-1.759,3.316-3.083
	c0.353-1.165,0.419-2.65,0.354-3.919c-0.076-1.498,0.635-2.537,1.6-3.65c1.704-1.967,3.671-5.078,6.667-3.868
	c1.418,0.573,2.535,1.666,4.146,1.769c1.49,0.095,2.991,0.058,4.417,0.421c1.231,0.313,2.036,1.477,3.023,2.308
	c0.955,0.805,1.938,1.899,2.626,2.936c0.826,1.244,1.224,2.937,0.498,4.316c-0.637,1.21-1.349,2.176-1.665,3.5
	c-0.431,1.811,0.441,2.952,1.337,4.437c0.527,0.872,1.873,2.692,1.165,3.725c-0.823,1.2-3.091,1.58-4.4,1.708
	c-1.251,0.123-3.931,0.15-4.84,1.048c-2.106,2.082,0.431,5.595,1.025,7.683c0.249,0.876,0.904,1.819,0.804,2.735
	c-1.423,0.257-2.732,0.259-4.158,0.1c-1.896-0.211-2.892,0.129-4.269,1.313c-2.114,1.817-4.554,3.128-6.892,4.458
	c-1.234,0.703-2.519,1.567-3.982,1.412c-1.728-0.183-2.697-1.437-3.836-2.539c-2.296-2.221-5.118-2.98-8.085-3.746
	c-0.658-0.17-1.274-0.671-1.87-0.882c-0.613-0.216-1.353-0.218-1.982-0.43c-0.741-0.25-1.266-0.627-2.087-0.667
	c-0.774-0.037-1.33,0.276-2.061,0.514c-1.334,0.434-2.544,0.514-3.266,1.901c-0.526,1.01-0.84,2.51-0.025,3.519
	c0.557,0.689,1.806,1.215,1.929,2.127c-1.306,0.671-2.621-0.195-3.737-0.817c-1.248-0.695-2.915-1.433-3.086-3.165"/>
<path id="Campania" display="none" fill="none" stroke="#000000" stroke-miterlimit="10" d="M421.261,397
	c-0.143-1.883-2.506-2.924-4.078-3.309c-1.139-0.278-1.507-0.106-2.471,0.369c-1.006,0.497-2.079,0.145-3.134,0.352
	c-1.071,0.21-2.13,0.92-3.138,1.335c-2.281,0.94-4.928,1.21-7.023,2.519c-1.2,0.75-1.563,2.166-2.919,2.733
	c-1.404,0.587-3.244,0.676-4.564-0.187c-1.255-0.821-2.134-2.076-3.418-2.919c-1.224-0.803-2.521-1.353-3.765-2.077
	c-1.22-0.711-2.324-1.395-3.663-1.648c-0.963-0.182-1.919-0.367-2.882-0.484c-1.217-0.147-2.446-0.543-3.624-0.602
	c-1.135-0.056-2.616,0.426-3.604,0.979c-1.286,0.72-1.158,2.416-0.667,3.689c0.291,0.753,2.189,2.403,1.377,3.19
	c-0.82,0.793-2.838-0.528-3.525-1.024c-1.858-1.344-3.786-5.042-6.437-2.604c-1.629,1.498-0.963,5.472-1.061,7.521
	c-0.088,1.846-0.638,2.41-2.4,2.917c-0.648,0.186-1.695,0.593-2.025,1.233c-0.482,0.934,0.519,1.612,1.078,2.281
	c1.639,1.959,3.128,4.04,4.51,6.187c2.725,4.235,5.029,8.723,7.239,13.243c0.799,1.635,1.065,3.336,1.689,5.048
	c0.235,0.645,0.277,2.277,1.236,2.456c1.483,0.276,0.913-1.394,1.683-1.766c1.202-0.581,1.317,0.211,2.311,0.081
	c1.452-0.19,1.529-0.509,2.52-1.006c1.798-0.901,2.33-1.255,4.305,0.431c1.427,1.218,2.111,3.082,3.743,4.013
	c1.524,0.869,4.295,0.419,4.138,2.993c-0.1,1.647-3.152,2.648-2.948,4.062c0.272,1.879,3.849,1.314,5.255,1.243
	c2.4-0.121,3.995-1.472,6.25-1.75c1.668-0.206,4.065,0.187,5.694,0.556c4.302,0.973,5.9,2.784,7.744,6.506
	c1.852,3.739,3.484,6.215,3.274,10.646c-2.916,1.104-6.963,6.316-2.968,8.548c0.864,0.482,1.898,0.009,2.755,0.496
	c0.899,0.511,0.99,1.653,1.556,2.194c1.679,1.604,3.59,0.603,5.958,1.292c3.816,1.11,4.51,6.099,8,8.207
	c4.29,2.592,5.709-1.172,9.244-2.938c1.845-0.922,3.556-1.277,5.431-0.444c1.582,0.703,3.261,3.237,5.311,2.012
	c1.664-0.995,0.985-4.087,1.001-5.823c0.01-1.127-0.159-2.055,0.439-3.006c0.577-0.917,2.176-0.992,2.634-1.981
	c0.712-1.538-3.313-7.869-4.323-9.276c-2.247-3.129-6.269-4.108-8.806-6.737c-2.01-2.084-1.463-4.524-3.507-6.438
	c-1.816-1.7-1.754-0.67-0.17-2.625c0.526-0.649,2.345-2.052,2.256-2.924c-0.184-1.803-6.026-4.103-7.21-5.832
	c-1.423-2.078-2.095-5.222-2.275-7.645c3.894-0.193,6.867,0.951,9.911-2.036c2.711-2.66,2.275-5.797-0.437-8.001
	c-1.269-1.031-2.787-1.583-4.074-2.451c-1.205-0.812-2.276-2.554-3.676-3.061c-2.169-0.786-8.764,1.174-7.469-3.695
	c1.899-1.34,4.386-3.342,1.719-5.737c-2.048-1.839-5.068,0.16-7.075-1.794c-0.594-0.578-1.765-3.057-1.882-3.818
	C420.068,399.146,421.358,398.279,421.261,397z"/>
<path id="Basilicata" display="none" fill="none" stroke="#000000" stroke-miterlimit="10" d="M441.333,419.5
	c1.137,0.48,2.362-1.35,3.509-1.833c1.48-0.625,2.879-0.577,4.495-0.658c1.165-0.058,3.022,0.132,4.163-0.176
	c1.303-0.352,1.522-1.486,2.667-2.041c2.417-1.171,4.885,0.391,6.703,1.837c1.842,1.465,4,3.388,2.8,5.538
	c-1.204,2.158-1.988,5.02,1.367,5.828c2.094,0.504,2.114-0.52,3.675-1.12c1.309-0.503,2.511,0.501,3.629,1.25
	c2.668,1.788,3.862,3.453,5.704,6.17c0.933,1.376,2.989,4.988,4.784,5.208c1.198,0.147,2.11-1.198,3.009-1.666
	c1.32-0.688,2.793-0.189,4.162-0.667c1.872-0.654,1.588-1.952,3.667-0.883c0.957,0.492,2.003,1.189,2.708,2
	c1.718,1.975,1.803,4.527,1.959,7.046c0.135,2.195,0.026,6.069,0.959,8.041c1.107,2.34,3.829,2.805,6.017,3.15
	c1.919,4.714-4.051,10.701-6.435,14.512c-1.456,2.329-2.149,5.536-5.171,5.26c-2.536-0.232-4.719,0.31-7.032,1.208
	c-2.556,0.992-4.371,2.117-4.175,5.162c0.106,1.644,1.439,6.975-0.659,7.499c-1.295,0.324-2.381-1.317-3.671-1.508
	c-1.448-0.214-3.137,0.438-4.333,1.175c-1.937,1.193-5.843,2.899-7.374,0.371c-1.519-2.509-1.935-5.928-5.796-5.374
	c-1.248,0.179-2.627,0.764-3.829,1.208c-1.275,0.471-2.188,1.623-3.464,2.003c-2.672,0.797-4.892-2.615-3.912-4.878
	c0.476-1.099,1.345-1.975,1.666-3.203c0.32-1.223-0.218-2.959,0.241-4.13c0.984-2.51,4.563-3.002,3.341-6.334
	c-0.389-1.06-1.469-2.298-2.163-3.204c-0.967-1.262-1.029-2.592-1.883-3.759c-1.435-1.961-4.448-3.235-6.333-4.703
	c-1.187-0.924-2.203-1.904-2.829-3.338c-0.439-1.006-0.132-3.008-0.655-3.833c-0.452-0.712-1.899-1.021-2.65-1.354
	c-0.195-1.322,1.106-2.405,1.512-3.601c0.544-1.602-0.412-1.622-1.841-2.578c-2.694-1.801-3.244-3.55-4.154-6.459
	c-0.52-1.662-3.395-6.618,0.491-6.012c1.964,0.306,2.034,1.457,4.134,0.721c1.082-0.379,2.426-1.001,3.329-1.7
	c1.584-1.227,1.958-3.387,2.004-5.342c0.058-2.503-2.07-3.095-3.337-4.833"/>
<path id="Puglia" display="none" fill="none" stroke="#000000" stroke-miterlimit="10" d="M523.009,419.301
	c-4.795-3.419-11.59-4.333-17.009-6.333c-2.401-0.886-4.899-1.887-7.126-2.843c-5.568-2.389-11.427-4.465-17.17-6.421
	c-5.641-1.921-11.296-5.151-16.545-7.833c-2.084-1.065-3.882-2.779-5.159-4.704c-1.664-2.509-1.743-4.188-0.296-6.833
	c2.529-4.625,7.374-6.151,10.671-9.967c4.34-5.022-0.945-10.638-6.505-10.699c-2.944-0.032-5.489,1.228-8.37,1.499
	c-1.404,0.132-3.477,0.297-4.854,0.009c-1.193-0.25-2.073-1.453-3.183-1.808c-5.181-1.655-9.795,5.51-14.933,3.437
	c0.03-2.719-3.326-1.804-4.696-1.309c-2.094,0.756-5.053-0.592-6.19,1.438c-1.048,1.871-0.252,4.38-0.766,6.401
	c-0.329,1.292-1.198,2.284-0.34,3.792c0.613,1.077,2.285,1.768,1.637,3.374c-0.613,1.519-4.971,2.413-6.517,3.167
	c-1.174,0.573-2.657,0.915-3.163,2.162c-0.459,1.132,0.042,2.84,0.343,4.001c0.848,3.275,2.289,4.337,5.487,5.175
	c1.451,0.381,2.516,0.24,3.133,1.829c0.448,1.153,0.294,2.926,0.171,4.167c-0.172,1.738-0.91,3.155,0.87,4.216
	c1.347,0.803,2.703,0.553,4.179,0.775c3.177,0.477,3.082,3.808,2.28,6.305c-1.199,3.734,2.267,3.312,5.05,3.695
	c2.704,0.372,3.926,2.845,6.325,3.796c1.891,0.749,1.965,0.242,3.036-0.954c1.124-1.254,2.121-1.504,3.794-1.667
	c1.828-0.179,3.652-0.102,5.503-0.166c0.626-0.022,1.31,0.143,1.834-0.2c0.678-0.444,0.635-1.629,1.288-2.015
	c1.8-1.066,4.516,1.139,5.879,2.049c1.493,0.997,4.608,1.974,4.499,4c-0.115,2.141-2.712,3.385-1.004,5.629
	c0.838,1.1,2.411,1.612,3.747,1.642c1.325,0.03,2.808-0.987,4.091-0.613c0.728,0.212,1.641,1.265,2.162,1.679
	c1.514,1.202,2.717,2.513,4.004,3.996c1.219,1.403,2.419,2.828,3.459,4.375c0.738,1.099,0.866,1.899,2.375,1.792
	c1.081-0.077,2.19-0.911,2.529-1.971c2.124-0.111,4.406,1.21,5.333-1.167c6.518-1.398,8.632,6.104,8.638,11.138
	c0.003,2.453-1.389,5.643,0,7.666c0.979,1.426,1.679,0.849,3.163,1.159c1.385,0.289,2.205,2.345,3.845,1.846
	c1.452-0.442,1.494-2.888,2.197-3.995c0.973-1.534,2.395-2.602,4.092-3.222c4.203-1.535,8.939-0.197,13.007,1.075
	c0.626,2.379-4.58,4.591-2.179,6.846c0.897,0.843,2.866,0.627,4.041,0.755c1.435,0.157,2.92,0.416,4.329,0.737
	c2.68,0.611,4.967,2.468,7.496,3.3c2.747,0.903,5.901-0.027,8.675-0.167c2.543-0.128,5.938-0.837,7.874,0.964
	c1.11,1.032,0.927,2.245,1.288,3.712c0.528,2.15,1.367,1.735,3.305,2.195c2.93,0.696,1.957,4.055,1.163,6.255
	c-0.804,2.225,0.338,5.502,1.496,7.582c0.953,1.711,4.148,3.6,6.034,4.585c2.479,1.294,5.117,1.769,7.67,2.579
	c1.812,0.575,1.382,1.876,2.667,2.804c1.49,1.076,2.726,0.005,3.013-1.509c0.479-2.53,0.117-5.511-0.009-8
	c-0.164-3.245,1.492-4.67,3.171-7.004c2.068-2.872,1.301-5.044-0.538-7.789c-0.775-1.157-1.537-2.115-1.93-3.411
	c-0.383-1.263-0.277-2.609-1.041-3.8c-1.225-1.908-4.646-3.813-6.459-5.329c-2.051-1.717-2.821-4.341-4.871-5.958
	c-1.226-0.967-2.905-1.386-4.175-2.245c-1.284-0.869-2.048-2.037-2.829-3.305c-1.366-2.215-2.575-4.793-4.657-6.487
	c-2.442-1.987-5.82-1.754-8.671-2.458c-2.836-0.7-5.764-2.235-8.458-3.384c-2.7-1.151-5.371-2.337-8.046-3.708
	C531.222,427.089,527.511,422.512,523.009,419.301z"/>
<path id="Calabria" display="none" fill="none" stroke="#000000" stroke-miterlimit="10" d="M519.829,552.537
	c-1.876-0.279-4.008-0.072-5.877,0.033c-2.309,0.13-3.693,1.657-5.794,2.425c-2.199,0.803-4.133,2.074-6.204,3.13
	c-1.895,0.966-4.146,2.403-5.329,4.33c-1.343,2.187-0.921,5.906-0.588,8.378c0.597,4.434,4.926,11.648,0.76,15.288
	c-4.344,3.795-9.455,5.911-12.926,10.753c-1.438,2.006-2.576,4.379-3.704,6.634c-1.203,2.405-1.16,5.081-2.546,7.325
	c-0.929,1.504-2.706,4.693-4.28,5.541c-1.109,0.598-2.975,0.383-4.175,0.621c-1.451,0.288-2.846,0.676-4.332,0.671
	c-3.134-0.012-6.169-0.585-8.455-2.866c-0.737-0.735-2.261-1.729-2.549-2.63c-0.37-1.157,0.456-1.464,0.741-2.394
	c0.302-0.984,0.192-1.319-0.035-2.399c-0.439-2.086-0.811-4.235-0.702-6.377c0.164-3.234,2.845-3.802,5.333-5.037
	c4.236-2.104,7.508-8.59,8.37-12.926c0.521-2.624,0.81-5.256-1.074-7.491c-1.61-1.911-4.075-4.034-1.588-6.504
	c4.426-4.397,10.746-2.051,15.25-6.249c1.913-1.783,2.316-4.494,2.55-6.95c0.304-3.18-2.055-3.825-4.171-5.501
	c-2.41-1.908-3.787-3.552-4.3-6.504c-0.471-2.711-1.286-5.283-1.667-7.874c-0.381-2.596-0.399-5.305-1.163-7.796
	c-0.774-2.524-0.923-5.4-2.545-7.596c-3.634-4.922-9.418-7.957-10.154-14.579c-0.311-2.799-0.119-5.802-0.5-8.658
	c-0.156-1.168-0.381-3.285-0.87-4.342c-0.766-1.654-1.613-1.624-1.472-3.824c0.078-1.217,0.352-2.88,1.5-3.63
	c1.043-0.681,2.389-0.156,3.667-0.204c3.155-0.117,5.353-0.755,6.708,2.796c1.061,2.783,2.371,4.449,5.787,3.528
	c1.33-0.359,2.153-1.352,3.38-1.954c0.998-0.49,2.725-0.546,3.962-0.37c2.511,0.358,5.483,2.038,5.53-1.826
	c0.026-2.129-1.017-4.784-0.146-6.836c0.853-2.01,3.648-2.781,5.619-3.172c2.242-0.445,4.5-2.009,6.803-1.808
	c0.315,3.627-4.306,2.355-3.812,5.979c0.388,2.844,2.457,4.797,0.971,7.821c-1.279,2.604-3.753,4.453-4.467,7.346
	c-0.693,2.806,1.309,4.54,1.167,7.329c-0.087,1.713-0.394,2.212,1.325,3.037c1.463,0.702,3.03,0.785,4.667,0.796
	c1.701,0.011,2.534,0.506,4.175,0.667c1.5,0.147,3.163,0.736,4.337,1.833c1.044,0.976,1.549,2.555,2.793,3.375
	c0.926,0.61,2.483,0.859,3.524,1.121c1.542,0.387,2.684,0.471,4.016,1.472c1.251,0.94,1.361,2.277,2.293,3.366
	c1.066,1.246,2.373,0.343,3.665,1.03c1.17,0.621,1.145,2.211,1.204,3.304c0.148,2.74-2.809,4.722-1.865,7.167
	c0.479,1.24,1.662,1.932,1.995,3.333c0.335,1.413-0.203,2.404-0.471,3.834c-0.224,1.195-0.278,2.543,0.212,3.667
	c0.646,1.479,1.645,1.468,2.641,2.464c2.534,2.53,0.743,6.343-2.012,7.491C523.143,552.894,521.792,552.829,519.829,552.537z"/>
<path id="Sicilia" display="none" fill="none" stroke="#000000" stroke-miterlimit="10" d="M430.454,630.667
	c-1.239-2.411,1.912-5.077,3.27-6.763c2.036-2.529,3.494-5.464,5.488-8.024c2.479-3.182,5.804-5.912,7.617-9.547
	c1.28-2.567,1.349-5.195,2.004-7.833c0.353-1.423,0.615-2.455-0.464-3.542c-1.243-1.252-2.177-1.023-3.329-0.084
	c-2.172,1.772-2.828,4.688-5.579,5.913c-2.684,1.195-5.514-0.746-7.929,1.22c-2.179,1.774-3.959,4.233-7.199,3.991
	c-2.889-0.216-5.224-3.318-8.004-4.003c-2.117-0.522-2.431,0.267-4.33,1.049c-1.223,0.503-2.592,0.348-3.792,0.826
	c-2.684,1.068-2.418,4.607-4.716,5.962c-2.489,1.468-5.729,0.703-8.454,1.875c-1.41,0.607-2.944,1.213-4.362,1.797
	c-1.192,0.49-2.561,1.503-3.843,1.791c-3.019,0.678-6.063-0.299-9.132-0.296c-2.955,0.004-5.46-0.906-8.367-1
	c-2.73-0.088-4.023,2.126-6.37,2.796c-2.646,0.756-5.681-0.562-8.126-1.296c-2.439-0.732-5.931-2.143-7.045-4.333
	c-0.645-1.268-1.344-3.011-2.951-3.303c-1.456-0.265-2.753,0.554-4.304-0.23c-1.813-0.916-3.476-5.768-5.408-5.762
	c-0.839,0.003-2.032,1.692-2.963,2.166c-1.52,0.773-1.755,0.708-3.204,0.167c-1.655-0.619-2.135-0.789-3.251,0.467
	c-0.935,1.053-1.501,2.492-1.879,3.829c-0.922,3.259-1.426,5.294-5.333,5.671c-2.81,0.271-5.669-0.692-7.166-3.171
	c-0.944-1.563-1.421-6.292-3.297-6.841c-1.65-0.483-1.481,1.416-1.695,2.517c-0.299,1.544-0.791,2.595-2.333,3.158
	c-1.37,0.5-2.67,0.437-4.009,1.121c-1.837,0.938-5.441,2.763-4.878,5.388c0.311,1.45,1.398,1.792,0.882,3.482
	c-0.809,2.65-3.13,4.66-3.887,7.354c-0.658,2.344,1.112,5.681,2.508,7.529c1.676,2.219,4.914,1.806,6.333,4.634
	c0.539,1.074,0.702,2.577,1.7,3.329c1.004,0.756,2.939,1.06,4.167,1.163c3.282,0.275,5.521-1.354,8.675-1.499
	c2.697-0.125,5.344,0.284,7.042,2.295c0.815,0.966,1.228,1.72,2.459,2.251c1.3,0.56,3.146,0.218,4.3,0.821
	c2.212,1.156,3.994,5.187,5.659,6.966c2.106,2.251,4.786,3.231,7.375,4.704c1.41,0.802,1.979,1.196,3.695,1.13
	c1.79-0.069,2.25-0.06,3.788,0.829c3.018,1.744,5.916,3.121,8.188,5.842c1.762,2.109,4.26,2.785,6.459,4.199
	c2.662,1.712,4.476,1.648,7.333,0.593c2.618-0.967,5.141-1.615,7.907-1.167c3.27,0.53,4.992,2.498,7.472,4.667
	c4.444,3.887,6.611,9.12,9.362,14.163c1.736,3.181,3.859,3.154,7.133,3.999c1.497,0.386,2.799,1.005,4.316,1.541
	c1.441,0.509,2.838,1.954,4.214,2.292c1.771,0.434,2.188-1.133,3.43-2.124c1.28-1.022,1.908-0.854,3.533-0.366
	c1.731,0.52,3.334,1.132,5.209,1.199c1.878,0.067,2.471,0.494,3.962,1.629c0.971,0.739,2.105,2.101,2.829,0.366
	c0.401-0.96-0.58-2.658-0.819-3.663c-0.606-2.545-1.436-5.521-0.838-8.166c0.581-2.57,2.539-4.804,4.487-6.537
	c1.834-1.631,5.391-3.85,5.007-6.62c-0.344-2.483-3.812-4.97-5.666-6.546c-0.745-0.633-2.311-1.516-1.841-2.805
	c0.414-1.135,2.377-1.078,2.674-2.493c0.501-2.39-4.243-3.741-5.8-4.874c-2.059-1.498-3.493-4.487-2.578-6.959
	c0.948-2.562,4.154-3.525,5.004-6.166c0.405-1.26,0.44-2.808,0.384-4.167c-0.063-1.536,0.35-2.511,0.695-3.964
	C432.431,632.846,431.482,632.667,430.454,630.667z"/>
<path id="Sardegna_x5F_Isola" display="none" fill="none" stroke="#000000" stroke-miterlimit="10" d="M87.833,417
	c0.945-2.078,3.069-3.975,5-5.125c0.779-0.464,1.926-1.421,2.712-0.754c0.525,0.446,0.438,2.56,0.291,3.216
	c-0.265,1.185-1.056,1.657-2.003,2.37c-0.976,0.735-1.216,1.642-1.951,2.333c-0.531,0.499-2.196,1.143-2.883,1.004
	c-1.052-0.214-2.046-1.575-1.5-2.545"/>
<path id="Sardegna_x5F_Isola_1_" display="none" fill="none" stroke="#000000" stroke-miterlimit="10" d="M90.313,541.469
	c-0.321,0.553-0.522,1.131-0.82,1.687c-0.23,0.43-0.525,0.743-0.212,1.22c0.341,0.521,0.312,1.031,0.345,1.657
	c0.031,0.595,0.176,0.98,0.461,1.497c0.277,0.501,0.486,1.197,1.047,1.385c0.517,0.173,1.112-0.022,1.593-0.159
	c1.05-0.298,1.325-1.593,1.562-2.537c0.274-1.091,1.151-1.764,1.149-2.906c-0.001-0.467-0.083-0.992-0.25-1.406
	c-0.319-0.792-1.126-0.789-1.838-1.009c-0.648-0.2-1.224-0.401-1.912-0.234c-0.428,0.103-1.522,0.305-1.281,0.962"/>
<path id="Sardegna_x5F_Isola_2_" display="none" fill="none" stroke="#000000" stroke-miterlimit="10" d="M85.292,534.833
	c-0.359-0.214-0.923,0.115-1.166,0.375c-0.291,0.312-0.214,0.644-0.267,1.026c-0.046,0.329-0.295,0.524-0.405,0.829
	c-0.122,0.34-0.137,0.723-0.002,1.063c0.242,0.607,1.059,1.091,1.714,0.932c0.585-0.141,1.318-0.886,1.354-1.499
	c0.028-0.473-0.01-0.964-0.181-1.394c-0.113-0.285-0.302-0.543-0.49-0.783c-0.121-0.154-0.376-0.529-0.558-0.568"/>
<path id="Sardegna" display="none" fill="none" stroke="#000000" stroke-miterlimit="10" d="M161.833,444.167
	c0.503,1.367,0.06,2.912,0.666,4.342c0.648,1.528,1.434,2.189,1.371,3.862c-0.112,2.976-1.32,5.681-2.704,8.296
	c-1.384,2.615-2.797,4.234-5.041,6.125c-2.361,1.991-2.189,4.569-0.504,7.074c1.722,2.56,3.905,3.75,3.212,7.133
	c-0.556,2.714-1.69,4.17-1.275,7.025c0.375,2.584-0.671,4.916-1.05,7.471c-0.349,2.351-0.41,4.564-0.509,7.004
	c-0.096,2.379-0.327,4.723-0.87,6.963c-0.516,2.13-0.245,4.558-0.792,6.712c-0.653,2.574-3.136,4.995-2.542,7.825
	c0.279,1.33,0.939,2.056,0.741,3.537c-0.219,1.637-0.772,2.356-1.574,3.593c-1.339,2.065-1.529,5.07-1.63,7.536
	c-0.042,1.042,1.019,3.542-0.335,4.012c-1.3,0.451-1.922-1.941-2.695-2.382c-1.375-0.785-3.046-0.357-4.438-1.175
	c-1.055-0.62-1.959-1.469-2.862-2.33c-1.53-1.457-3.957-5.463-6.55-4.007c-1.271,0.713-0.889,2.414-2.954,1.845
	c-1.215-0.335-1.748-1.513-2.626-2.305c-0.792-0.714-2.279-2.001-3.37-1.282c-1.747,1.152,0.425,1.975,0.829,2.721
	c0.609,1.124,0.299,2.617-0.421,3.656c-0.79,1.14-1.891,1.872-2.352,3.248c-0.492,1.47,0.574,2.732,0.358,4.25
	c-0.191,1.34-1.065,2.568-1.902,3.588c-0.98,1.194-2.254,2.155-3.535,2.973c-1.073,0.685-2.837,2.158-4.214,1.509
	c-0.694-0.327-0.999-1.174-1.771-1.485c-0.52-0.21-1.397-0.295-1.996-0.167c-1.509,0.324-2.518,1.395-4.231,0.731
	c-1.253-0.486-1.867-1.154-1.935-2.482c-0.057-1.106-0.268-2.645-1.083-3.417l0.167-0.083c-0.735-1.437-2.134-2.338-2.896-3.75
	c-0.677-1.254-0.532-2.854-1.2-3.994c-0.396-0.676-1.462-1.15-2.006-1.752c-0.502-0.556-0.952-1.243-1.561-1.692
	c-1.067-0.787-2.979-1.166-2.425-2.894c0.775-2.416,7.096-2.542,4.007-6.003c-0.84-0.941-2.341-1.783-2.921-2.916
	c-0.839-1.639,1.709-2.114,1.109-3.588c-0.217-0.532-0.831-0.717-1.086-1.248c-0.338-0.704,0.116-1.423,0.669-1.893
	c0.977-0.831,2.214-1.246,3.231-2.128c1.532-1.329,1.342-2.326,1.5-4.143c0.059-0.677,0.156-1.392,0.079-2.084
	c-0.085-0.759-0.4-1.073-0.771-1.732c-0.694-1.233-0.187-3.007-0.979-4.102v0.083c-0.029-2.158,2.091-0.785,3.171-1.602
	c1.035-0.783,1.937-1.84,2.496-3.061c1.109-2.424,2.036-5.566,1.917-8.256c-0.045-1.001-0.474-1.202-1.417-1.581
	c-0.695-0.279-1.397-0.309-2.118-0.185c-0.736,0.126-1.406,0.447-2.067,0.764c-1.275,0.612-1.908,0.933-3.328,0.757
	c-1.384-0.172-1.43-0.004-1.57-1.417c-0.075-0.759-0.126-1.552-0.083-2.336c0.074-1.356,0.296-2.619,0.768-3.898
	c0.45-1.218,2.248-1.727,3.315-2.498c1.34-0.967,1.752-2.107,1.833-3.687c0.08-1.559-0.091-3.095,0.313-4.585
	c0.328-1.212,1.429-2.375,0.874-3.683c-0.498-1.175-1.874-1.964-2.749-2.838c-1.013-1.011-1.422-2.191-1.275-3.644
	c0.13-1.29,1.052-2.468,0.837-3.833c-0.204-1.295-0.958-2.652-1.856-3.65c-0.78-0.867-1.925-1.689-2.248-2.848
	c-0.251-0.9,0.5-3.518-0.563-3.918v0.083c-0.486-0.847-1.949-1.471-2.852-1.108c-0.919,0.37-0.888,0.74-1.899,0.381
	c-0.575-0.204-1.306-0.457-1.812-0.794c-0.748-0.498-0.567-0.65-0.083-1.292c0.723-0.958,1.732-1.729,2.333-2.75
	c0.927-1.574,0.615-2.14-0.516-3.373c-1.002-1.092-1.088-2.459-1.088-3.898c0-1.854,0.696-2.697,1.602-4.25
	c0.909-1.557,1.054-2.341-0.1-3.831c-0.42-0.542-1.119-1.391-0.819-2.171c0.427-1.109,1.41-0.336,1.837,0.233
	c1.654,2.203,1.159,5.707,4.315,6.6c1.344,0.38,2.926,0.086,4.331,0.424c1.406,0.338,2.959,0.725,4.416,0.491
	c1.38-0.221,2.728-0.583,4.083-0.917c1.307-0.322,2.373-1.324,3.521-2.06c1.139-0.731,2.675-0.94,4.002-1.019
	c1.458-0.087,2.531-0.618,3.75-1.396c2.482-1.584,4.556-3.476,5.959-6.106c0.623-1.169,1.413-2.277,2.248-3.333
	c0.794-1.005,1.659-2.427,2.789-3.063c1.092-0.614,2.487-0.571,3.731-0.773c0.585-0.095,1.504-0.139,2.002-0.516
	c0.564-0.427,0.507-1.113,0.665-1.812c0.167-0.74,0.512-1.442,0.667-2.167c0.176-0.829-0.006-1.471,0.773-1.942
	c0.756-0.457,2.118-0.701,2.888-0.118c0.618,0.468,0.808,1.67,1.087,2.394c0.62,1.602,1.01,3.135,3.006,3.254
	c0.822,0.049,1.891-0.236,2.514,0.242c0.529,0.405,0.868,1.413,1.086,2.023c0.775,2.172,1.646,2.546,3.794,1.875
	c0.706-0.221,1.236-0.723,2.002-0.456c0.721,0.251,1.233,1.089,1.267,1.812c0.066,1.426-1.164,2.546-1.25,3.917
	c-0.134,2.151,2.408,0.217,3.5,0.496c1.471,0.376-0.203,2.827-0.919,3.36c-1.114,0.83-1.947,1.391-2.769,2.54
	c-0.469,0.657-0.773,0.946,0.106,1.437c0.644,0.36,1.436,0.421,2.146,0.5c0.646,0.072,1.229,0.061,1.852,0
	c0.528-0.051,1.303-0.387,1.819-0.154c0.29,1.29,0.443,2.944,0.186,4.237c-0.277,1.393-0.937,2.661-0.735,4.16
	c0.394,2.94,3.84,4.389,3.815,7.34"/>
</svg>
